# Blender 5.0.1
# www.blender.org
mtllib g0101_obj.mtl
o g0101
v 120.839043 118.554581 116.500000
v 120.839043 2.554582 116.500000
v 120.839043 118.554581 108.500000
v 120.839043 2.554582 108.500000
v 118.839043 120.554581 108.500000
v 2.839044 120.554581 108.500000
v 118.839043 120.554581 116.500000
v 2.839044 120.554581 116.500000
v 0.839044 118.554581 108.500000
v 0.839044 2.554582 108.500000
v 0.839044 118.554581 116.500000
v 0.839044 2.554582 116.500000
v 118.839043 0.554582 116.500000
v 2.839044 0.554582 116.500000
v 118.839043 0.554582 108.500000
v 2.839044 0.554582 108.500000
v 34.470963 115.313354 116.500000
v 35.144451 115.493813 116.500000
v 37.207123 107.795807 116.500000
v 36.533634 107.615349 116.500000
v 83.839043 108.090477 116.500000
v 83.267891 108.490402 116.500000
v 39.839043 111.554581 116.500000
v 64.738564 56.929581 116.500000
v 64.663574 56.822491 116.500000
v 69.778275 10.249173 116.500000
v 68.410194 12.618759 116.500000
v 68.903221 12.125732 116.500000
v 64.345558 56.599812 116.500000
v 87.207123 115.313354 116.500000
v 87.839043 115.018684 116.500000
v 88.410194 114.618759 116.500000
v 88.903221 114.125732 116.500000
v 64.827652 57.174343 116.500000
v 64.793816 57.048065 116.500000
v 64.571136 56.730045 116.500000
v 64.464043 56.655060 116.500000
v 82.080269 112.922661 116.500000
v 82.374939 113.554581 116.500000
v 82.774864 114.125732 116.500000
v 84.470963 115.313354 116.500000
v 85.144447 115.493813 116.500000
v 85.839043 115.554581 116.500000
v 86.533638 115.493813 116.500000
v 89.303146 113.554581 116.500000
v 89.597809 112.922661 116.500000
v 89.778275 112.249176 116.500000
v 89.839043 111.554581 116.500000
v 89.778275 110.859985 116.500000
v 89.597809 110.186501 116.500000
v 89.303146 109.554581 116.500000
v 69.303146 11.554582 116.500000
v 69.597809 10.922661 116.500000
v 85.839043 107.554581 116.500000
v 39.597813 110.186501 116.500000
v 39.303146 109.554581 116.500000
v 33.267891 108.490402 116.500000
v 33.839043 108.090477 116.500000
v 34.470963 107.795807 116.500000
v 83.267891 114.618759 116.500000
v 83.839043 115.018684 116.500000
v 39.778275 110.859985 116.500000
v 85.144447 107.615349 116.500000
v 84.470963 107.795807 116.500000
v 38.903221 108.983429 116.500000
v 38.410194 108.490402 116.500000
v 37.839043 108.090477 116.500000
v 35.839043 107.554581 116.500000
v 35.144451 107.615349 116.500000
v 32.374943 113.554581 116.500000
v 32.774864 114.125732 116.500000
v 37.839043 115.018684 116.500000
v 38.410194 114.618759 116.500000
v 38.903221 114.125732 116.500000
v 67.207123 5.795808 116.500000
v 67.839043 6.090479 116.500000
v 68.410194 6.490404 116.500000
v 66.533638 13.493812 116.500000
v 67.207123 13.313351 116.500000
v 67.839043 13.018681 116.500000
v 86.533638 107.615349 116.500000
v 33.267891 114.618759 116.500000
v 33.839043 115.018684 116.500000
v 35.839043 115.554581 116.500000
v 36.533634 115.493813 116.500000
v 37.207123 115.313354 116.500000
v 82.774864 108.983429 116.500000
v 82.374939 109.554581 116.500000
v 82.080269 110.186501 116.500000
v 55.144451 5.615348 116.500000
v 54.470963 5.795808 116.500000
v 53.839043 6.090479 116.500000
v 31.899813 110.859985 116.500000
v 31.839043 111.554581 116.500000
v 31.899813 112.249176 116.500000
v 32.080273 112.922661 116.500000
v 81.899811 110.859985 116.500000
v 81.839043 111.554581 116.500000
v 39.778275 112.249176 116.500000
v 81.899811 112.249176 116.500000
v 39.597813 112.922661 116.500000
v 39.303146 113.554581 116.500000
v 69.839043 9.554582 116.500000
v 69.778275 8.859986 116.500000
v 69.597809 8.186499 116.500000
v 66.533638 5.615348 116.500000
v 65.839043 5.554581 116.500000
v 55.839043 5.554581 116.500000
v 51.899811 10.249173 116.500000
v 52.080273 10.922661 116.500000
v 52.374939 11.554582 116.500000
v 64.793816 64.061096 116.500000
v 64.827652 63.934818 116.500000
v 64.839043 63.804581 116.500000
v 64.839043 57.304581 116.500000
v 56.884274 57.048065 116.500000
v 56.850437 57.174343 116.500000
v 54.470963 13.313351 116.500000
v 56.839043 57.304581 116.500000
v 56.839043 63.804581 116.500000
v 32.774864 108.983429 116.500000
v 32.374943 109.554581 116.500000
v 32.080273 110.186501 116.500000
v 69.303146 7.554581 116.500000
v 68.903221 6.983431 116.500000
v 57.332527 64.509354 116.500000
v 57.214043 64.454102 116.500000
v 57.106953 64.379112 116.500000
v 56.850437 63.934818 116.500000
v 57.458805 64.543190 116.500000
v 57.589043 64.554581 116.500000
v 64.089043 64.554581 116.500000
v 88.903221 108.983429 116.500000
v 88.410194 108.490402 116.500000
v 87.207123 107.795807 116.500000
v 64.571136 64.379112 116.500000
v 64.663574 64.286674 116.500000
v 55.144451 13.493812 116.500000
v 57.332527 56.599812 116.500000
v 57.214043 56.655060 116.500000
v 57.106953 56.730045 116.500000
v 57.014507 56.822491 116.500000
v 56.939522 56.929581 116.500000
v 53.267891 6.490404 116.500000
v 52.774864 6.983431 116.500000
v 52.374939 7.554581 116.500000
v 56.884274 64.061096 116.500000
v 56.939522 64.179581 116.500000
v 57.014507 64.286674 116.500000
v 64.219276 64.543190 116.500000
v 64.345558 64.509354 116.500000
v 64.464043 64.454102 116.500000
v 87.839043 108.090477 116.500000
v 64.738564 64.179581 116.500000
v 64.089043 56.554581 116.500000
v 57.589043 56.554581 116.500000
v 57.458805 56.565975 116.500000
v 52.080273 8.186499 116.500000
v 51.899811 8.859986 116.500000
v 51.839043 9.554582 116.500000
v 52.774864 12.125732 116.500000
v 53.267891 12.618759 116.500000
v 53.839043 13.018681 116.500000
v 64.219276 56.565975 116.500000
v 55.839043 13.554583 116.500000
v 65.839043 13.554583 116.500000
v 57.884621 10.075526 108.500000
v 57.839043 9.554582 108.500000
v 83.240967 110.054581 108.500000
v 83.540909 109.626213 108.500000
v 63.793465 9.033637 108.500000
v 34.812981 108.735504 108.500000
v 35.318096 108.600159 108.500000
v 63.437119 62.054581 108.500000
v 58.540909 7.626219 108.500000
v 58.240967 8.054583 108.500000
v 58.019966 8.528522 108.500000
v 58.240967 62.054581 108.500000
v 58.019966 61.580643 108.500000
v 34.339043 108.956505 108.500000
v 57.884621 9.033637 108.500000
v 62.767406 62.852715 108.500000
v 62.339043 63.152657 108.500000
v 33.240967 110.054581 108.500000
v 61.865101 63.373657 108.500000
v 61.359985 63.509003 108.500000
v 60.839043 63.554581 108.500000
v 60.318096 63.509003 108.500000
v 59.812981 63.373657 108.500000
v 62.339043 12.152658 108.500000
v 61.865101 12.373658 108.500000
v 82.884621 111.033638 108.500000
v 61.359985 12.509005 108.500000
v 82.839043 111.554581 108.500000
v 63.839043 9.554582 108.500000
v 83.019966 110.528519 108.500000
v 63.793465 10.075526 108.500000
v 63.658119 10.580642 108.500000
v 63.437119 11.054581 108.500000
v 63.137177 11.482944 108.500000
v 62.767406 11.852714 108.500000
v 63.137177 62.482944 108.500000
v 33.540909 109.626213 108.500000
v 33.910679 109.256447 108.500000
v 58.019966 59.528519 108.500000
v 58.240967 59.054581 108.500000
v 60.318096 12.509005 108.500000
v 59.812981 12.373658 108.500000
v 59.339043 12.152658 108.500000
v 58.910679 11.852714 108.500000
v 58.910679 7.256446 108.500000
v 59.339043 6.956504 108.500000
v 59.812981 6.735502 108.500000
v 36.865101 108.735504 108.500000
v 37.339043 108.956505 108.500000
v 85.318100 114.509003 108.500000
v 83.019966 112.580643 108.500000
v 82.884621 112.075523 108.500000
v 36.359985 108.600159 108.500000
v 35.839043 108.554581 108.500000
v 32.839043 111.554581 108.500000
v 32.884617 111.033638 108.500000
v 33.019962 110.528519 108.500000
v 57.884621 61.075523 108.500000
v 57.839043 60.554581 108.500000
v 57.884621 60.033638 108.500000
v 58.540909 58.626217 108.500000
v 58.910679 58.256447 108.500000
v 59.339043 57.956505 108.500000
v 58.540909 11.482944 108.500000
v 58.240967 11.054581 108.500000
v 58.019966 10.580642 108.500000
v 60.318096 6.600158 108.500000
v 60.839043 6.554579 108.500000
v 61.359985 6.600158 108.500000
v 61.865101 6.735502 108.500000
v 62.339043 6.956504 108.500000
v 62.767406 7.256446 108.500000
v 88.658119 110.528519 108.500000
v 88.793465 111.033638 108.500000
v 37.767406 109.256447 108.500000
v 38.137177 109.626213 108.500000
v 38.437119 110.054581 108.500000
v 36.865101 114.373657 108.500000
v 36.359985 114.509003 108.500000
v 35.839043 114.554581 108.500000
v 35.318096 114.509003 108.500000
v 59.339043 63.152657 108.500000
v 58.910679 62.852715 108.500000
v 58.540909 62.482944 108.500000
v 63.839043 60.554581 108.500000
v 63.793465 61.075523 108.500000
v 83.910683 109.256447 108.500000
v 84.339043 108.956505 108.500000
v 84.812981 108.735504 108.500000
v 63.137177 7.626219 108.500000
v 63.437119 8.054583 108.500000
v 63.658119 8.528522 108.500000
v 85.318100 108.600159 108.500000
v 85.839043 108.554581 108.500000
v 86.359985 108.600159 108.500000
v 87.339043 108.956505 108.500000
v 87.767403 109.256447 108.500000
v 88.137177 109.626213 108.500000
v 88.437119 110.054581 108.500000
v 84.339043 114.152657 108.500000
v 83.910683 113.852715 108.500000
v 83.540909 113.482941 108.500000
v 83.240967 113.054581 108.500000
v 59.812981 57.735504 108.500000
v 60.318096 57.600159 108.500000
v 60.839043 12.554581 108.500000
v 60.839043 57.554581 108.500000
v 61.359985 57.600159 108.500000
v 61.865101 57.735504 108.500000
v 62.339043 57.956505 108.500000
v 62.767406 58.256447 108.500000
v 63.137177 58.626217 108.500000
v 38.658119 110.528519 108.500000
v 38.793465 111.033638 108.500000
v 85.839043 114.554581 108.500000
v 84.812981 114.373657 108.500000
v 88.437119 113.054581 108.500000
v 88.137177 113.482941 108.500000
v 86.865105 114.373657 108.500000
v 86.359985 114.509003 108.500000
v 38.437119 113.054581 108.500000
v 38.137177 113.482941 108.500000
v 34.812981 114.373657 108.500000
v 34.339043 114.152657 108.500000
v 33.910679 113.852715 108.500000
v 33.019962 112.580643 108.500000
v 32.884617 112.075523 108.500000
v 86.865105 108.735504 108.500000
v 88.839043 111.554581 108.500000
v 88.793465 112.075523 108.500000
v 88.658119 112.580643 108.500000
v 87.767403 113.852715 108.500000
v 87.339043 114.152657 108.500000
v 38.839043 111.554581 108.500000
v 38.793465 112.075523 108.500000
v 38.658119 112.580643 108.500000
v 37.767406 113.852715 108.500000
v 37.339043 114.152657 108.500000
v 33.540909 113.482941 108.500000
v 33.240967 113.054581 108.500000
v 63.658119 61.580643 108.500000
v 63.437119 59.054581 108.500000
v 63.658119 59.528519 108.500000
v 63.793465 60.033638 108.500000
v 55.839043 13.554583 114.500000
v 55.144451 13.493812 114.500000
v 54.470963 13.313351 114.500000
v 53.839043 13.018681 114.500000
v 53.267891 12.618759 114.500000
v 52.774864 12.125732 114.500000
v 52.374939 11.554582 114.500000
v 52.080273 10.922661 114.500000
v 51.899811 10.249173 114.500000
v 51.839043 9.554582 114.500000
v 51.899811 8.859986 114.500000
v 52.080273 8.186499 114.500000
v 52.374939 7.554581 114.500000
v 52.774864 6.983431 114.500000
v 53.267891 6.490404 114.500000
v 53.839043 6.090479 114.500000
v 54.470963 5.795808 114.500000
v 55.144451 5.615348 114.500000
v 55.839043 5.554581 114.500000
v 65.839043 13.554583 114.500000
v 65.839043 5.554581 114.500000
v 66.533638 5.615348 114.500000
v 67.207123 5.795808 114.500000
v 67.839043 6.090479 114.500000
v 68.410194 6.490404 114.500000
v 68.903221 6.983431 114.500000
v 69.303146 7.554581 114.500000
v 69.597809 8.186499 114.500000
v 69.778275 8.859986 114.500000
v 69.839043 9.554582 114.500000
v 69.778275 10.249173 114.500000
v 69.597809 10.922661 114.500000
v 69.303146 11.554582 114.500000
v 68.903221 12.125732 114.500000
v 68.410194 12.618759 114.500000
v 67.839043 13.018681 114.500000
v 67.207123 13.313351 114.500000
v 66.533638 13.493812 114.500000
v 62.141319 8.461843 114.500000
v 61.931782 8.252306 114.500000
v 60.257607 7.957103 114.500000
v 59.989044 8.082335 114.500000
v 61.134243 7.880406 114.500000
v 60.839043 7.854579 114.500000
v 62.513214 9.259378 114.500000
v 62.539043 9.554582 114.500000
v 62.311287 8.704582 114.500000
v 60.543839 7.880406 114.500000
v 62.436520 8.973145 114.500000
v 61.689041 8.082335 114.500000
v 61.420475 7.957103 114.500000
v 60.839043 11.254580 114.500000
v 59.989044 11.026824 114.500000
v 60.257607 11.152057 114.500000
v 60.543839 11.228753 114.500000
v 62.513214 9.849781 114.500000
v 59.366798 8.704582 114.500000
v 59.241566 8.973145 114.500000
v 61.134243 11.228753 114.500000
v 61.420475 11.152057 114.500000
v 61.689041 11.026824 114.500000
v 59.746304 8.252306 114.500000
v 59.536766 8.461843 114.500000
v 59.139042 9.554582 114.500000
v 59.164867 9.849781 114.500000
v 59.164867 9.259378 114.500000
v 61.931782 10.856857 114.500000
v 62.141319 10.647321 114.500000
v 62.311287 10.404581 114.500000
v 62.436520 10.136014 114.500000
v 59.241566 10.136014 114.500000
v 59.366798 10.404581 114.500000
v 59.536766 10.647321 114.500000
v 59.746304 10.856857 114.500000
v 64.839043 57.304581 114.500000
v 64.839043 63.804581 114.500000
v 57.589043 56.554581 114.500000
v 64.089043 56.554581 114.500000
v 56.839043 63.804581 114.500000
v 56.839043 57.304581 114.500000
v 57.589043 64.554581 114.500000
v 64.089043 64.554581 114.500000
v 62.539043 60.554581 114.500000
v 62.513214 60.259380 114.500000
v 61.689041 59.082336 114.500000
v 61.420475 58.957104 114.500000
v 61.931782 59.252304 114.500000
v 59.366798 59.704582 114.500000
v 59.241566 59.973145 114.500000
v 60.543839 58.880409 114.500000
v 60.839043 58.854580 114.500000
v 61.134243 58.880409 114.500000
v 59.164867 60.259380 114.500000
v 59.139042 60.554581 114.500000
v 59.164867 60.849781 114.500000
v 59.989044 62.026825 114.500000
v 60.257607 62.152058 114.500000
v 62.311287 61.404579 114.500000
v 62.141319 61.647320 114.500000
v 64.827652 63.934818 114.500000
v 62.436520 61.136013 114.500000
v 62.513214 60.849781 114.500000
v 64.464043 56.655060 114.500000
v 62.141319 59.461842 114.500000
v 64.345558 56.599812 114.500000
v 64.219276 56.565975 114.500000
v 64.571136 56.730045 114.500000
v 64.663574 56.822491 114.500000
v 64.738564 56.929581 114.500000
v 62.436520 59.973145 114.500000
v 62.311287 59.704582 114.500000
v 64.827652 57.174343 114.500000
v 64.793816 57.048065 114.500000
v 59.536766 59.461842 114.500000
v 56.850437 57.174343 114.500000
v 59.746304 59.252304 114.500000
v 56.884274 57.048065 114.500000
v 56.939522 56.929581 114.500000
v 61.134243 62.228752 114.500000
v 60.839043 62.254581 114.500000
v 60.543839 62.228752 114.500000
v 57.014507 56.822491 114.500000
v 57.106953 56.730045 114.500000
v 57.214043 56.655060 114.500000
v 64.793816 64.061096 114.500000
v 64.738564 64.179581 114.500000
v 64.663574 64.286674 114.500000
v 61.420475 62.152058 114.500000
v 61.689041 62.026825 114.500000
v 64.219276 64.543190 114.500000
v 61.931782 61.856857 114.500000
v 64.345558 64.509354 114.500000
v 60.257607 58.957104 114.500000
v 59.989044 59.082336 114.500000
v 57.458805 56.565975 114.500000
v 57.332527 56.599812 114.500000
v 64.571136 64.379112 114.500000
v 64.464043 64.454102 114.500000
v 57.332527 64.509354 114.500000
v 57.214043 64.454102 114.500000
v 59.746304 61.856857 114.500000
v 59.241566 61.136013 114.500000
v 59.366798 61.404579 114.500000
v 56.850437 63.934818 114.500000
v 59.536766 61.647320 114.500000
v 56.884274 64.061096 114.500000
v 56.939522 64.179581 114.500000
v 57.458805 64.543190 114.500000
v 57.106953 64.379112 114.500000
v 57.014507 64.286674 114.500000
v 89.839043 111.554581 114.500000
v 89.778275 112.249176 114.500000
v 89.597809 112.922661 114.500000
v 89.303146 113.554581 114.500000
v 88.903221 114.125732 114.500000
v 88.410194 114.618759 114.500000
v 87.839043 115.018684 114.500000
v 87.207123 115.313354 114.500000
v 86.533638 115.493813 114.500000
v 85.839043 115.554581 114.500000
v 85.144447 115.493813 114.500000
v 84.470963 115.313354 114.500000
v 83.839043 115.018684 114.500000
v 83.267891 114.618759 114.500000
v 82.774864 114.125732 114.500000
v 82.374939 113.554581 114.500000
v 82.080269 112.922661 114.500000
v 81.899811 112.249176 114.500000
v 81.839043 111.554581 114.500000
v 81.899811 110.859985 114.500000
v 82.080269 110.186501 114.500000
v 82.374939 109.554581 114.500000
v 82.774864 108.983429 114.500000
v 83.267891 108.490402 114.500000
v 83.839043 108.090477 114.500000
v 84.470963 107.795807 114.500000
v 85.144447 107.615349 114.500000
v 85.839043 107.554581 114.500000
v 86.533638 107.615349 114.500000
v 87.207123 107.795807 114.500000
v 87.839043 108.090477 114.500000
v 88.410194 108.490402 114.500000
v 88.903221 108.983429 114.500000
v 89.303146 109.554581 114.500000
v 89.597809 110.186501 114.500000
v 89.778275 110.859985 114.500000
v 84.366798 112.404579 114.500000
v 84.241562 112.136017 114.500000
v 84.164871 111.849785 114.500000
v 84.139038 111.554581 114.500000
v 84.164871 111.259377 114.500000
v 84.241562 110.973145 114.500000
v 84.366798 110.704582 114.500000
v 84.536766 110.461838 114.500000
v 84.746300 110.252304 114.500000
v 84.989044 110.082336 114.500000
v 85.257607 109.957108 114.500000
v 85.543839 109.880409 114.500000
v 85.839043 109.854584 114.500000
v 86.134247 109.880409 114.500000
v 86.420479 109.957108 114.500000
v 86.689041 110.082336 114.500000
v 86.931786 110.252304 114.500000
v 87.141319 110.461838 114.500000
v 87.311287 110.704582 114.500000
v 87.436523 110.973145 114.500000
v 87.513214 111.259377 114.500000
v 87.539040 111.554581 114.500000
v 87.513214 111.849785 114.500000
v 87.436523 112.136017 114.500000
v 87.311287 112.404579 114.500000
v 87.141319 112.647316 114.500000
v 86.931786 112.856857 114.500000
v 86.689041 113.026825 114.500000
v 86.420479 113.152061 114.500000
v 86.134247 113.228752 114.500000
v 85.839043 113.254585 114.500000
v 85.543839 113.228752 114.500000
v 85.257607 113.152061 114.500000
v 84.989044 113.026825 114.500000
v 84.746300 112.856857 114.500000
v 84.536766 112.647316 114.500000
v 39.839043 111.554581 114.500000
v 39.778275 112.249176 114.500000
v 39.597813 112.922661 114.500000
v 39.303146 113.554581 114.500000
v 38.903221 114.125732 114.500000
v 38.410194 114.618759 114.500000
v 37.839043 115.018684 114.500000
v 37.207123 115.313354 114.500000
v 36.533634 115.493813 114.500000
v 35.839043 115.554581 114.500000
v 35.144451 115.493813 114.500000
v 34.470963 115.313354 114.500000
v 33.839043 115.018684 114.500000
v 33.267891 114.618759 114.500000
v 32.774864 114.125732 114.500000
v 32.374943 113.554581 114.500000
v 32.080273 112.922661 114.500000
v 31.899813 112.249176 114.500000
v 31.839043 111.554581 114.500000
v 31.899813 110.859985 114.500000
v 32.080273 110.186501 114.500000
v 32.374943 109.554581 114.500000
v 32.774864 108.983429 114.500000
v 33.267891 108.490402 114.500000
v 33.839043 108.090477 114.500000
v 34.470963 107.795807 114.500000
v 35.144451 107.615349 114.500000
v 35.839043 107.554581 114.500000
v 36.533634 107.615349 114.500000
v 37.207123 107.795807 114.500000
v 37.839043 108.090477 114.500000
v 38.410194 108.490402 114.500000
v 38.903221 108.983429 114.500000
v 39.303146 109.554581 114.500000
v 39.597813 110.186501 114.500000
v 39.778275 110.859985 114.500000
v 34.366798 112.404579 114.500000
v 34.241566 112.136017 114.500000
v 34.164867 111.849785 114.500000
v 34.139042 111.554581 114.500000
v 34.164867 111.259377 114.500000
v 34.241566 110.973145 114.500000
v 34.366798 110.704582 114.500000
v 34.536766 110.461838 114.500000
v 34.746304 110.252304 114.500000
v 34.989044 110.082336 114.500000
v 35.257607 109.957108 114.500000
v 35.543842 109.880409 114.500000
v 35.839043 109.854584 114.500000
v 36.134247 109.880409 114.500000
v 36.420475 109.957108 114.500000
v 36.689041 110.082336 114.500000
v 36.931782 110.252304 114.500000
v 37.141319 110.461838 114.500000
v 37.311287 110.704582 114.500000
v 37.436520 110.973145 114.500000
v 37.513214 111.259377 114.500000
v 37.539043 111.554581 114.500000
v 37.513214 111.849785 114.500000
v 37.436520 112.136017 114.500000
v 37.311287 112.404579 114.500000
v 37.141319 112.647316 114.500000
v 36.931782 112.856857 114.500000
v 36.689041 113.026825 114.500000
v 36.420475 113.152061 114.500000
v 36.134247 113.228752 114.500000
v 35.839043 113.254585 114.500000
v 35.543842 113.228752 114.500000
v 35.257607 113.152061 114.500000
v 34.989044 113.026825 114.500000
v 34.746304 112.856857 114.500000
v 34.536766 112.647316 114.500000
v 34.139042 111.554581 112.500000
v 34.164867 111.849785 112.500000
v 34.241566 112.136017 112.500000
v 34.366798 112.404579 112.500000
v 34.536766 112.647316 112.500000
v 34.746304 112.856857 112.500000
v 34.989044 113.026825 112.500000
v 35.257607 113.152061 112.500000
v 35.543842 113.228752 112.500000
v 35.839043 113.254585 112.500000
v 36.134247 113.228752 112.500000
v 36.420475 113.152061 112.500000
v 36.689041 113.026825 112.500000
v 36.931782 112.856857 112.500000
v 37.141319 112.647316 112.500000
v 37.311287 112.404579 112.500000
v 37.436520 112.136017 112.500000
v 37.513214 111.849785 112.500000
v 37.539043 111.554581 112.500000
v 37.513214 111.259377 112.500000
v 37.436520 110.973145 112.500000
v 37.311287 110.704582 112.500000
v 37.141319 110.461838 112.500000
v 36.931782 110.252304 112.500000
v 36.689041 110.082336 112.500000
v 36.420475 109.957108 112.500000
v 36.134247 109.880409 112.500000
v 35.839043 109.854584 112.500000
v 35.543842 109.880409 112.500000
v 35.257607 109.957108 112.500000
v 34.989044 110.082336 112.500000
v 34.746304 110.252304 112.500000
v 34.536766 110.461838 112.500000
v 34.366798 110.704582 112.500000
v 34.241566 110.973145 112.500000
v 34.164867 111.259377 112.500000
v 38.658119 112.580643 112.500000
v 38.793465 112.075523 112.500000
v 38.839043 111.554581 112.500000
v 38.793465 111.033638 112.500000
v 38.658119 110.528519 112.500000
v 38.437119 110.054581 112.500000
v 38.137177 109.626213 112.500000
v 37.767406 109.256447 112.500000
v 37.339043 108.956505 112.500000
v 36.865101 108.735504 112.500000
v 36.359985 108.600159 112.500000
v 35.839043 108.554581 112.500000
v 35.318096 108.600159 112.500000
v 34.812981 108.735504 112.500000
v 34.339043 108.956505 112.500000
v 33.910679 109.256447 112.500000
v 33.540909 109.626213 112.500000
v 33.240967 110.054581 112.500000
v 33.019962 110.528519 112.500000
v 32.884617 111.033638 112.500000
v 32.839043 111.554581 112.500000
v 32.884617 112.075523 112.500000
v 33.019962 112.580643 112.500000
v 33.240967 113.054581 112.500000
v 33.540909 113.482941 112.500000
v 33.910679 113.852715 112.500000
v 34.339043 114.152657 112.500000
v 34.812981 114.373657 112.500000
v 35.318096 114.509003 112.500000
v 35.839043 114.554581 112.500000
v 36.359985 114.509003 112.500000
v 36.865101 114.373657 112.500000
v 37.339043 114.152657 112.500000
v 37.767406 113.852715 112.500000
v 38.137177 113.482941 112.500000
v 38.437119 113.054581 112.500000
v 84.139038 111.554581 112.500000
v 84.164871 111.849785 112.500000
v 84.241562 112.136017 112.500000
v 84.366798 112.404579 112.500000
v 84.536766 112.647316 112.500000
v 84.746300 112.856857 112.500000
v 84.989044 113.026825 112.500000
v 85.257607 113.152061 112.500000
v 85.543839 113.228752 112.500000
v 85.839043 113.254585 112.500000
v 86.134247 113.228752 112.500000
v 86.420479 113.152061 112.500000
v 86.689041 113.026825 112.500000
v 86.931786 112.856857 112.500000
v 87.141319 112.647316 112.500000
v 87.311287 112.404579 112.500000
v 87.436523 112.136017 112.500000
v 87.513214 111.849785 112.500000
v 87.539040 111.554581 112.500000
v 87.513214 111.259377 112.500000
v 87.436523 110.973145 112.500000
v 87.311287 110.704582 112.500000
v 87.141319 110.461838 112.500000
v 86.931786 110.252304 112.500000
v 86.689041 110.082336 112.500000
v 86.420479 109.957108 112.500000
v 86.134247 109.880409 112.500000
v 85.839043 109.854584 112.500000
v 85.543839 109.880409 112.500000
v 85.257607 109.957108 112.500000
v 84.989044 110.082336 112.500000
v 84.746300 110.252304 112.500000
v 84.536766 110.461838 112.500000
v 84.366798 110.704582 112.500000
v 84.241562 110.973145 112.500000
v 84.164871 111.259377 112.500000
v 88.658119 112.580643 112.500000
v 88.793465 112.075523 112.500000
v 88.839043 111.554581 112.500000
v 88.793465 111.033638 112.500000
v 88.658119 110.528519 112.500000
v 88.437119 110.054581 112.500000
v 88.137177 109.626213 112.500000
v 87.767403 109.256447 112.500000
v 87.339043 108.956505 112.500000
v 86.865105 108.735504 112.500000
v 86.359985 108.600159 112.500000
v 85.839043 108.554581 112.500000
v 85.318100 108.600159 112.500000
v 84.812981 108.735504 112.500000
v 84.339043 108.956505 112.500000
v 83.910683 109.256447 112.500000
v 83.540909 109.626213 112.500000
v 83.240967 110.054581 112.500000
v 83.019966 110.528519 112.500000
v 82.884621 111.033638 112.500000
v 82.839043 111.554581 112.500000
v 82.884621 112.075523 112.500000
v 83.019966 112.580643 112.500000
v 83.240967 113.054581 112.500000
v 83.540909 113.482941 112.500000
v 83.910683 113.852715 112.500000
v 84.339043 114.152657 112.500000
v 84.812981 114.373657 112.500000
v 85.318100 114.509003 112.500000
v 85.839043 114.554581 112.500000
v 86.359985 114.509003 112.500000
v 86.865105 114.373657 112.500000
v 87.339043 114.152657 112.500000
v 87.767403 113.852715 112.500000
v 88.137177 113.482941 112.500000
v 88.437119 113.054581 112.500000
v 59.139042 9.554582 112.500000
v 59.164867 9.849781 112.500000
v 59.241566 10.136014 112.500000
v 59.366798 10.404581 112.500000
v 59.536766 10.647321 112.500000
v 59.746304 10.856857 112.500000
v 59.989044 11.026824 112.500000
v 60.257607 11.152057 112.500000
v 60.543839 11.228753 112.500000
v 60.839043 11.254580 112.500000
v 61.134243 11.228753 112.500000
v 61.420475 11.152057 112.500000
v 61.689041 11.026824 112.500000
v 61.931782 10.856857 112.500000
v 62.141319 10.647321 112.500000
v 62.311287 10.404581 112.500000
v 62.436520 10.136014 112.500000
v 62.513214 9.849781 112.500000
v 62.539043 9.554582 112.500000
v 62.513214 9.259378 112.500000
v 62.436520 8.973145 112.500000
v 62.311287 8.704582 112.500000
v 62.141319 8.461843 112.500000
v 61.931782 8.252306 112.500000
v 61.689041 8.082335 112.500000
v 61.420475 7.957103 112.500000
v 61.134243 7.880406 112.500000
v 60.839043 7.854579 112.500000
v 60.543839 7.880406 112.500000
v 60.257607 7.957103 112.500000
v 59.989044 8.082335 112.500000
v 59.746304 8.252306 112.500000
v 59.536766 8.461843 112.500000
v 59.366798 8.704582 112.500000
v 59.241566 8.973145 112.500000
v 59.164867 9.259378 112.500000
v 58.240967 11.054581 112.500000
v 58.540909 11.482944 112.500000
v 58.910679 11.852714 112.500000
v 59.339043 12.152658 112.500000
v 59.812981 12.373658 112.500000
v 60.318096 12.509005 112.500000
v 60.839043 12.554581 112.500000
v 61.359985 12.509005 112.500000
v 61.865101 12.373658 112.500000
v 62.339043 12.152658 112.500000
v 62.767406 11.852714 112.500000
v 63.137177 11.482944 112.500000
v 63.437119 11.054581 112.500000
v 63.658119 10.580642 112.500000
v 63.793465 10.075526 112.500000
v 63.839043 9.554582 112.500000
v 63.793465 9.033637 112.500000
v 63.658119 8.528522 112.500000
v 63.437119 8.054583 112.500000
v 63.137177 7.626219 112.500000
v 62.767406 7.256446 112.500000
v 62.339043 6.956504 112.500000
v 61.865101 6.735502 112.500000
v 61.359985 6.600158 112.500000
v 60.839043 6.554579 112.500000
v 60.318096 6.600158 112.500000
v 59.812981 6.735502 112.500000
v 59.339043 6.956504 112.500000
v 58.910679 7.256446 112.500000
v 58.540909 7.626219 112.500000
v 58.240967 8.054583 112.500000
v 58.019966 8.528522 112.500000
v 57.884621 9.033637 112.500000
v 57.839043 9.554582 112.500000
v 57.884621 10.075526 112.500000
v 58.019966 10.580642 112.500000
v 59.139042 60.554581 112.500000
v 59.164867 60.849781 112.500000
v 59.241566 61.136013 112.500000
v 59.366798 61.404579 112.500000
v 59.536766 61.647320 112.500000
v 59.746304 61.856857 112.500000
v 59.989044 62.026825 112.500000
v 60.257607 62.152058 112.500000
v 60.543839 62.228752 112.500000
v 60.839043 62.254581 112.500000
v 61.134243 62.228752 112.500000
v 61.420475 62.152058 112.500000
v 61.689041 62.026825 112.500000
v 61.931782 61.856857 112.500000
v 62.141319 61.647320 112.500000
v 62.311287 61.404579 112.500000
v 62.436520 61.136013 112.500000
v 62.513214 60.849781 112.500000
v 62.539043 60.554581 112.500000
v 62.513214 60.259380 112.500000
v 62.436520 59.973145 112.500000
v 62.311287 59.704582 112.500000
v 62.141319 59.461842 112.500000
v 61.931782 59.252304 112.500000
v 61.689041 59.082336 112.500000
v 61.420475 58.957104 112.500000
v 61.134243 58.880409 112.500000
v 60.839043 58.854580 112.500000
v 60.543839 58.880409 112.500000
v 60.257607 58.957104 112.500000
v 59.989044 59.082336 112.500000
v 59.746304 59.252304 112.500000
v 59.536766 59.461842 112.500000
v 59.366798 59.704582 112.500000
v 59.241566 59.973145 112.500000
v 59.164867 60.259380 112.500000
v 63.658119 61.580643 112.500000
v 63.793465 61.075523 112.500000
v 63.839043 60.554581 112.500000
v 63.793465 60.033638 112.500000
v 63.658119 59.528519 112.500000
v 63.437119 59.054581 112.500000
v 63.137177 58.626217 112.500000
v 62.767406 58.256447 112.500000
v 62.339043 57.956505 112.500000
v 61.865101 57.735504 112.500000
v 61.359985 57.600159 112.500000
v 60.839043 57.554581 112.500000
v 60.318096 57.600159 112.500000
v 59.812981 57.735504 112.500000
v 59.339043 57.956505 112.500000
v 58.910679 58.256447 112.500000
v 58.540909 58.626217 112.500000
v 58.240967 59.054581 112.500000
v 58.019966 59.528519 112.500000
v 57.884621 60.033638 112.500000
v 57.839043 60.554581 112.500000
v 57.884621 61.075523 112.500000
v 58.019966 61.580643 112.500000
v 58.240967 62.054581 112.500000
v 58.540909 62.482944 112.500000
v 58.910679 62.852715 112.500000
v 59.339043 63.152657 112.500000
v 59.812981 63.373657 112.500000
v 60.318096 63.509003 112.500000
v 60.839043 63.554581 112.500000
v 61.359985 63.509003 112.500000
v 61.865101 63.373657 112.500000
v 62.339043 63.152657 112.500000
v 62.767406 62.852715 112.500000
v 63.137177 62.482944 112.500000
v 63.437119 62.054581 112.500000
vn -0.0872 -0.9962 -0.0000
vn 0.5736 0.8192 -0.0000
vn -0.0000 1.0000 -0.0000
vn 0.8192 -0.5736 -0.0000
vn -0.0000 -0.0000 1.0000
vn 0.0002 -0.0000 1.0000
vn -0.0001 -0.0000 1.0000
vn -0.0000 -0.0000 -1.0000
vn 0.0004 -0.0000 1.0000
vn -0.0003 -0.0000 1.0000
vn 0.0001 -0.0000 1.0000
vn -0.0002 -0.0000 1.0000
vn 0.0031 -0.0000 1.0000
vn -0.0001 -0.0000 -1.0000
vn -0.0002 -0.0000 -1.0000
vn -0.0004 -0.0000 -1.0000
vn 0.0001 -0.0000 -1.0000
vn 0.9063 0.4226 -0.0000
vn -0.0872 0.9962 -0.0000
vn -0.9962 0.0871 -0.0000
vn 0.9962 -0.0872 -0.0000
vn 0.0872 0.9962 -0.0000
vn 0.4226 -0.9063 -0.0000
vn -0.9962 -0.0871 -0.0000
vn -0.9659 -0.2588 -0.0000
vn -0.2588 0.9659 -0.0000
vn 0.2588 -0.9659 -0.0000
vn -0.2588 -0.9659 -0.0000
vn 0.5736 -0.8192 -0.0000
vn 0.9659 -0.2588 -0.0000
vn -0.9063 -0.4226 -0.0000
vn -0.7071 -0.7071 -0.0000
vn -0.9962 -0.0872 -0.0000
vn -0.7071 0.7071 -0.0000
vn 0.0872 -0.9962 -0.0000
vn -0.5736 -0.8192 -0.0000
vn -0.8192 -0.5736 -0.0000
vn -0.0871 -0.9962 -0.0000
vn -0.4226 0.9063 -0.0000
vn 1.0000 -0.0000 -0.0000
vn 0.7071 0.7071 -0.0000
vn -0.9962 0.0872 -0.0000
vn -0.4226 -0.9063 -0.0000
vn 0.2588 0.9659 -0.0000
vn -0.5736 0.8192 -0.0000
vn 0.9659 0.2588 -0.0000
vn 0.8191 -0.5736 -0.0000
vn 0.9063 -0.4226 -0.0000
vn 0.7071 -0.7071 -0.0000
vn -0.9063 0.4226 -0.0000
vn -0.9659 0.2588 -0.0000
vn -0.0000 -1.0000 -0.0000
vn 0.5736 0.8191 -0.0000
vn 0.9962 0.0872 -0.0000
vn -0.8192 0.5736 -0.0000
vn -1.0000 -0.0000 -0.0000
vn 0.8192 0.5736 -0.0000
vn 0.4226 0.9063 -0.0000
vn 0.8191 0.5736 -0.0000
vn -0.8191 -0.5736 -0.0000
vn 0.5736 -0.8191 -0.0000
vn -0.5736 0.8191 -0.0000
vn -0.8191 0.5736 -0.0000
vn 0.0871 -0.9962 -0.0000
vn -0.5736 -0.8191 -0.0000
vt 0.000000 0.000000
vt 0.280266 0.956323
vt 0.285878 0.957827
vt 0.016667 1.000000
vt 0.303067 0.893677
vt 0.297455 0.892173
vt 0.000000 0.016667
vt 0.691667 0.896132
vt 0.686907 0.899465
vt 0.325000 0.925000
vt 0.532496 0.469792
vt 0.531871 0.468899
vt 0.574494 0.080788
vt 0.563093 0.100535
vt 0.567202 0.096426
vt 0.529221 0.467044
vt 0.719734 0.956323
vt 0.725000 0.953868
vt 0.983334 1.000000
vt 0.729760 0.950535
vt 0.733868 0.946426
vt 0.533239 0.471831
vt 0.532957 0.470779
vt 1.000000 0.016667
vt 0.531101 0.468129
vt 0.530208 0.467504
vt 0.677010 0.936401
vt 0.679466 0.941667
vt 0.682799 0.946426
vt 0.696933 0.956323
vt 0.702545 0.957827
vt 0.708333 0.958333
vt 0.714122 0.957827
vt 0.737201 0.941667
vt 0.739657 0.936401
vt 1.000000 0.983333
vt 0.741160 0.930788
vt 0.741667 0.925000
vt 0.741160 0.919212
vt 0.739657 0.913599
vt 0.737201 0.908333
vt 0.570534 0.091667
vt 0.572990 0.086401
vt 0.708333 0.891667
vt 0.322990 0.913599
vt 0.320534 0.908333
vt 0.270240 0.899465
vt 0.275000 0.896132
vt 0.280266 0.893677
vt 0.686907 0.950535
vt 0.691667 0.953868
vt 0.324494 0.919212
vt 0.702545 0.892173
vt 0.696933 0.893677
vt 0.317202 0.903574
vt 0.313093 0.899465
vt 0.308333 0.896132
vt 0.291667 0.891667
vt 0.285878 0.892173
vt 0.262799 0.941667
vt 0.266132 0.946426
vt 0.308333 0.953868
vt 0.313093 0.950535
vt 0.317202 0.946426
vt 0.553067 0.043677
vt 0.983334 0.000000
vt 0.558333 0.046132
vt 0.563093 0.049465
vt 0.547455 0.107827
vt 0.553067 0.106323
vt 0.558333 0.103867
vt 0.714122 0.892173
vt 0.270240 0.950535
vt 0.275000 0.953868
vt 0.291667 0.958333
vt 0.297455 0.957827
vt 0.303067 0.956323
vt 0.682799 0.903574
vt 0.679466 0.908333
vt 0.677010 0.913599
vt 0.452545 0.042173
vt 0.446933 0.043677
vt 0.016667 0.000000
vt 0.441667 0.046132
vt 0.258840 0.919212
vt 0.258333 0.925000
vt 0.000000 0.983333
vt 0.258840 0.930788
vt 0.260344 0.936401
vt 0.675507 0.919212
vt 0.675000 0.925000
vt 0.322990 0.936401
vt 0.320534 0.941667
vt 0.575000 0.075000
vt 0.574494 0.069212
vt 0.572990 0.063599
vt 0.547455 0.042173
vt 0.541667 0.041667
vt 0.458333 0.041667
vt 0.425507 0.080788
vt 0.427010 0.086401
vt 0.429466 0.091667
vt 0.532957 0.529221
vt 0.533239 0.528169
vt 0.533334 0.527083
vt 0.533334 0.472917
vt 0.467044 0.470779
vt 0.466762 0.471831
vt 0.446933 0.106323
vt 0.466667 0.472917
vt 0.466667 0.527083
vt 0.266132 0.903574
vt 0.262799 0.908333
vt 0.260344 0.913599
vt 0.570534 0.058333
vt 0.567202 0.053574
vt 0.470779 0.532956
vt 0.469792 0.532496
vt 0.468899 0.531871
vt 0.466762 0.528169
vt 0.471831 0.533238
vt 0.472917 0.533333
vt 0.527083 0.533333
vt 0.733868 0.903574
vt 0.729760 0.899465
vt 0.719734 0.893677
vt 0.531101 0.531871
vt 0.531871 0.531101
vt 0.470779 0.467044
vt 0.469792 0.467504
vt 0.468899 0.468129
vt 0.468129 0.468899
vt 0.467504 0.469792
vt 0.436907 0.049465
vt 0.432799 0.053574
vt 0.429466 0.058333
vt 0.467044 0.529221
vt 0.467504 0.530208
vt 0.468129 0.531101
vt 0.528169 0.533238
vt 0.529221 0.532956
vt 0.530208 0.532496
vt 0.725000 0.896132
vt 0.532496 0.530208
vt 0.527083 0.466667
vt 0.472917 0.466667
vt 0.452545 0.107827
vt 0.471831 0.466762
vt 0.427010 0.063599
vt 0.425507 0.069212
vt 0.425000 0.075000
vt 0.432799 0.096426
vt 0.436907 0.100535
vt 0.441667 0.103867
vt 0.541667 0.108333
vt 0.458333 0.108333
vt 0.528169 0.466762
vt 0.675507 0.930788
vt 0.324494 0.930788
s 0
usemtl g0101_obj
f 85/1/1 84/1/1 542/1/1 541/1/1
f 434/1/2 433/1/2 141/1/2 140/1/2
f 329/1/3 108/1/3 107/1/3 331/1/3
f 457/1/4 460/1/4 149/1/4 148/1/4
f 17/2/5 18/3/5 8/4/5
f 19/5/5 20/6/5 12/7/5
f 21/8/5 22/9/5 23/10/5
f 24/11/5 25/12/5 26/13/5
f 27/14/5 28/15/5 29/16/5
f 30/17/5 31/18/5 7/19/5
f 7/19/5 31/18/5 32/20/5
f 7/19/5 32/20/5 33/21/5
f 34/22/5 35/23/5 2/24/5
f 2/24/5 35/23/5 24/11/5
f 25/12/5 36/25/5 26/13/5
f 26/13/6 36/25/6 37/26/6
f 26/13/5 37/26/5 29/16/5
f 38/27/5 39/28/5 8/4/5
f 8/4/5 39/28/5 40/29/5
f 41/30/5 42/31/5 8/4/5
f 8/4/5 42/31/5 43/32/5
f 8/4/5 43/32/5 7/19/5
f 7/19/5 43/32/5 44/33/5
f 7/19/5 44/33/5 30/17/5
f 33/21/5 45/34/5 7/19/5
f 7/19/5 45/34/5 46/35/5
f 414/1/5 423/1/5 422/1/5 421/1/5
f 1/36/5 47/37/5 48/38/5
f 48/38/5 49/39/5 1/36/5
f 1/36/5 49/39/5 50/40/5
f 1/36/5 50/40/5 51/41/5
f 28/15/7 52/42/7 29/16/7
f 29/16/5 52/42/5 53/43/5
f 29/16/5 53/43/5 26/13/5
f 54/44/5 55/45/5 56/46/5
f 57/47/5 12/7/5 58/48/5
f 58/48/5 12/7/5 59/49/5
f 40/29/5 60/50/5 8/4/5
f 8/4/5 60/50/5 61/51/5
f 8/4/5 61/51/5 41/30/5
f 55/45/5 54/44/5 62/52/5
f 62/52/5 54/44/5 63/53/5
f 62/52/5 63/53/5 23/10/5
f 23/10/5 63/53/5 64/54/5
f 23/10/5 64/54/5 21/8/5
f 56/46/5 65/55/5 54/44/5
f 54/44/5 65/55/5 66/56/5
f 54/44/5 66/56/5 67/57/5
f 20/6/5 68/58/5 12/7/5
f 12/7/5 68/58/5 69/59/5
f 12/7/5 69/59/5 59/49/5
f 8/4/5 70/60/5 71/61/5
f 72/62/5 73/63/5 38/27/5
f 38/27/5 73/63/5 74/64/5
f 75/65/5 13/66/5 76/67/5
f 76/67/5 13/66/5 77/68/5
f 78/69/5 79/70/5 29/16/5
f 29/16/5 79/70/5 80/71/5
f 29/16/5 80/71/5 27/14/5
f 81/72/5 54/44/5 12/7/5
f 12/7/5 54/44/5 67/57/5
f 12/7/5 67/57/5 19/5/5
f 71/61/5 82/73/5 8/4/5
f 8/4/5 82/73/5 83/74/5
f 8/4/5 83/74/5 17/2/5
f 18/3/5 84/75/5 8/4/5
f 8/4/5 84/75/5 85/76/5
f 8/4/5 85/76/5 38/27/5
f 38/27/5 85/76/5 86/77/5
f 38/27/5 86/77/5 72/62/5
f 22/9/5 87/78/5 23/10/5
f 23/10/5 87/78/5 88/79/5
f 23/10/5 88/79/5 89/80/5
f 90/81/5 91/82/5 14/83/5
f 14/83/5 91/82/5 92/84/5
f 93/85/5 94/86/5 11/87/5
f 11/87/5 94/86/5 95/88/5
f 46/35/5 47/37/5 1/36/5 7/19/5
f 8/4/5 96/89/5 70/60/5
f 89/80/5 97/90/5 23/10/5
f 23/10/5 97/90/5 98/91/5
f 660/1/8 661/1/8 605/1/8 640/1/8
f 261/1/8 294/1/8 4/1/8 15/1/8
f 101/92/5 38/27/5 102/93/5
f 102/93/5 38/27/5 74/64/5
f 24/11/5 26/13/5 2/24/5
f 2/24/5 26/13/5 103/94/5
f 313/1/5 314/1/5 381/1/5 382/1/5
f 13/66/5 104/95/5 105/96/5
f 75/65/5 106/97/5 13/66/5
f 13/66/5 106/97/5 107/98/5
f 13/66/5 107/98/5 14/83/5
f 14/83/5 107/98/5 108/99/5
f 14/83/5 108/99/5 90/81/5
f 109/100/5 110/101/5 12/7/5
f 12/7/5 110/101/5 111/102/5
f 112/103/5 113/104/5 1/36/5
f 1/36/5 113/104/5 114/105/5
f 1/36/5 114/105/5 2/24/5
f 2/24/5 114/105/5 115/106/5
f 2/24/5 115/106/5 34/22/5
f 116/107/5 117/108/5 118/109/5
f 118/1/9 117/1/9 119/1/9
f 118/109/5 119/110/5 120/111/5
f 57/47/5 121/112/5 12/7/5
f 12/7/5 121/112/5 122/113/5
f 12/7/5 122/113/5 11/87/5
f 11/87/5 122/113/5 123/114/5
f 11/87/5 123/114/5 93/85/5
f 105/96/5 124/115/5 13/66/5
f 13/66/5 124/115/5 125/116/5
f 13/66/5 125/116/5 77/68/5
f 126/117/10 81/72/10 127/118/10
f 127/118/5 81/72/5 128/119/5
f 120/111/5 129/120/5 12/7/5
f 126/117/5 130/121/5 81/72/5
f 81/72/11 130/121/11 131/122/11
f 81/72/5 131/122/5 132/123/5
f 51/41/5 133/124/5 1/36/5
f 1/36/5 133/124/5 134/125/5
f 1/36/5 134/125/5 112/103/5
f 135/126/5 136/127/5 137/128/5
f 368/1/5 325/1/5 326/1/5 367/1/5
f 118/109/5 139/129/5 140/130/5
f 118/109/5 140/130/5 141/131/5
f 141/131/5 142/132/5 118/109/5
f 118/109/11 142/132/11 143/133/11
f 118/109/12 143/133/12 116/107/12
f 92/84/5 144/134/5 14/83/5
f 14/83/5 144/134/5 145/135/5
f 14/83/5 145/135/5 146/136/5
f 129/120/5 147/137/5 12/7/5
f 12/7/7 147/137/7 148/138/7
f 12/7/5 148/138/5 81/72/5
f 81/72/13 148/138/13 149/139/13
f 81/72/11 149/139/11 128/119/11
f 132/123/5 150/140/5 81/72/5
f 81/72/5 150/140/5 151/141/5
f 81/72/5 151/141/5 135/126/5
f 135/126/5 151/141/5 152/142/5
f 135/126/5 152/142/5 136/127/5
f 134/125/5 153/143/5 112/103/5
f 112/103/5 153/143/5 135/126/5
f 112/103/5 135/126/5 154/144/5
f 154/144/5 135/126/5 137/128/5
f 155/145/5 156/146/5 138/147/5
f 138/147/7 156/146/7 157/148/7
f 146/136/5 158/149/5 14/83/5
f 14/83/5 158/149/5 159/150/5
f 103/94/5 104/95/5 13/66/5 2/24/5
f 12/7/5 160/151/5 109/100/5
f 111/102/5 161/152/5 12/7/5
f 12/7/5 161/152/5 162/153/5
f 12/7/5 162/153/5 120/111/5
f 120/111/5 162/153/5 163/154/5
f 120/111/5 163/154/5 118/109/5
f 292/1/8 293/1/8 9/1/8 6/1/8
f 15/1/8 171/1/8 260/1/8 261/1/8
f 29/16/5 166/155/5 78/69/5
f 167/1/8 168/1/8 10/1/8
f 169/1/14 170/1/14 171/1/14
f 172/1/8 173/1/8 174/1/8
f 175/1/8 16/1/8 176/1/8
f 176/1/8 16/1/8 177/1/8
f 9/1/8 178/1/8 179/1/8
f 172/1/8 174/1/8 180/1/8
f 333/1/5 334/1/5 359/1/5 357/1/5
f 16/1/8 181/1/8 177/1/8
f 182/1/14 183/1/14 184/1/14
f 184/1/8 183/1/8 185/1/8
f 184/1/8 185/1/8 186/1/8
f 186/1/8 187/1/8 184/1/8
f 184/1/8 187/1/8 188/1/8
f 184/1/8 188/1/8 189/1/8
f 190/1/8 191/1/8 192/1/8
f 192/1/8 191/1/8 193/1/8
f 192/1/8 193/1/8 194/1/8
f 195/1/8 192/1/8 171/1/8
f 171/1/8 192/1/8 196/1/8
f 171/1/8 196/1/8 169/1/8
f 195/1/8 197/1/8 192/1/8
f 192/1/8 197/1/8 198/1/8
f 192/1/8 198/1/8 199/1/8
f 199/1/8 200/1/8 192/1/8
f 192/1/8 200/1/8 201/1/8
f 192/1/8 201/1/8 190/1/8
f 182/1/8 184/1/8 202/1/8
f 202/1/15 184/1/15 203/1/15
f 202/1/8 203/1/8 174/1/8
f 174/1/8 203/1/8 204/1/8
f 174/1/8 204/1/8 180/1/8
f 205/1/8 206/1/8 207/1/8
f 207/1/8 208/1/8 9/1/8
f 9/1/8 208/1/8 209/1/8
f 9/1/8 209/1/8 210/1/8
f 175/1/8 211/1/8 16/1/8
f 16/1/8 211/1/8 212/1/8
f 16/1/8 212/1/8 213/1/8
f 214/1/8 215/1/8 216/1/8
f 217/1/8 218/1/8 219/1/8
f 219/1/8 218/1/8 194/1/8
f 219/1/8 194/1/8 220/1/8
f 221/1/8 222/1/8 9/1/8
f 9/1/8 222/1/8 223/1/8
f 9/1/8 223/1/8 184/1/8
f 179/1/8 224/1/8 9/1/8
f 9/1/8 224/1/8 225/1/8
f 9/1/8 225/1/8 207/1/8
f 207/1/16 225/1/16 226/1/16
f 207/1/17 226/1/17 205/1/17
f 206/1/14 227/1/14 207/1/14
f 207/1/17 227/1/17 228/1/17
f 207/1/8 228/1/8 229/1/8
f 210/1/8 230/1/8 9/1/8
f 9/1/8 230/1/8 231/1/8
f 9/1/8 231/1/8 10/1/8
f 10/1/8 231/1/8 232/1/8
f 10/1/8 232/1/8 167/1/8
f 213/1/8 233/1/8 16/1/8
f 16/1/8 233/1/8 234/1/8
f 16/1/8 234/1/8 15/1/8
f 15/1/8 234/1/8 235/1/8
f 235/1/8 236/1/8 15/1/8
f 15/1/8 236/1/8 237/1/8
f 15/1/8 237/1/8 238/1/8
f 239/1/8 240/1/8 3/1/8
f 215/1/8 241/1/8 216/1/8
f 216/1/8 241/1/8 242/1/8
f 216/1/8 242/1/8 243/1/8
f 244/1/8 245/1/8 5/1/8
f 5/1/8 245/1/8 246/1/8
f 5/1/8 246/1/8 6/1/8
f 6/1/8 246/1/8 247/1/8
f 189/1/8 248/1/8 184/1/8
f 184/1/8 248/1/8 249/1/8
f 184/1/8 249/1/8 9/1/8
f 9/1/8 249/1/8 250/1/8
f 9/1/8 250/1/8 178/1/8
f 251/1/8 252/1/8 194/1/8
f 170/1/8 253/1/8 171/1/8
f 171/1/8 253/1/8 254/1/8
f 171/1/8 254/1/8 255/1/8
f 238/1/8 256/1/8 15/1/8
f 15/1/8 256/1/8 257/1/8
f 15/1/8 257/1/8 258/1/8
f 255/1/8 259/1/8 171/1/8
f 171/1/8 259/1/8 260/1/8
f 315/1/5 316/1/5 375/1/5 381/1/5
f 262/1/8 263/1/8 4/1/8
f 4/1/8 263/1/8 264/1/8
f 4/1/8 264/1/8 3/1/8
f 3/1/8 264/1/8 265/1/8
f 3/1/8 265/1/8 239/1/8
f 266/1/8 267/1/8 219/1/8
f 267/1/8 268/1/8 219/1/8
f 219/1/8 268/1/8 269/1/8
f 219/1/8 269/1/8 217/1/8
f 229/1/8 270/1/8 207/1/8
f 207/1/8 270/1/8 271/1/8
f 494/1/5 495/1/5 516/1/5 515/1/5
f 815/1/8 816/1/8 783/1/8 782/1/8
f 193/1/8 274/1/8 275/1/8
f 275/1/8 276/1/8 193/1/8
f 193/1/8 276/1/8 277/1/8
f 193/1/14 277/1/14 278/1/14
f 243/1/8 279/1/8 216/1/8
f 216/1/8 279/1/8 280/1/8
f 216/1/8 280/1/8 281/1/8
f 214/1/8 216/1/8 219/1/8
f 219/1/8 216/1/8 282/1/8
f 219/1/8 282/1/8 266/1/8
f 283/1/8 284/1/8 5/1/8
f 285/1/8 286/1/8 5/1/8
f 5/1/8 286/1/8 281/1/8
f 287/1/8 288/1/8 5/1/8
f 247/1/8 289/1/8 6/1/8
f 6/1/8 289/1/8 290/1/8
f 6/1/8 290/1/8 291/1/8
f 296/1/8 297/1/8 5/1/8 3/1/8
f 9/1/8 293/1/8 221/1/8
f 258/1/8 171/1/8 15/1/8
f 138/147/5 157/148/5 139/129/5 118/109/5
f 4/1/8 294/1/8 262/1/8
f 240/1/8 295/1/8 3/1/8
f 3/1/8 295/1/8 296/1/8
f 95/88/5 96/89/5 8/4/5 11/87/5
f 5/1/8 297/1/8 283/1/8
f 284/1/8 298/1/8 5/1/8
f 5/1/8 298/1/8 299/1/8
f 5/1/8 299/1/8 285/1/8
f 280/1/8 300/1/8 281/1/8
f 281/1/8 300/1/8 301/1/8
f 281/1/8 301/1/8 5/1/8
f 5/1/8 301/1/8 302/1/8
f 5/1/8 302/1/8 287/1/8
f 288/1/8 303/1/8 5/1/8
f 5/1/8 303/1/8 304/1/8
f 5/1/8 304/1/8 244/1/8
f 291/1/8 305/1/8 6/1/8
f 6/1/8 305/1/8 306/1/8
f 6/1/8 306/1/8 292/1/8
f 252/1/14 307/1/14 194/1/14
f 194/1/8 307/1/8 174/1/8
f 194/1/8 174/1/8 220/1/8
f 220/1/8 174/1/8 173/1/8
f 278/1/17 308/1/17 193/1/17
f 193/1/8 308/1/8 309/1/8
f 193/1/8 309/1/8 194/1/8
f 194/1/15 309/1/15 310/1/15
f 194/1/8 310/1/8 251/1/8
f 428/1/18 427/1/18 116/1/18 143/1/18
f 631/1/19 632/1/19 581/1/19 582/1/19
f 281/1/1 286/1/1 743/1/1 742/1/1
f 385/1/20 422/1/20 34/1/20 115/1/20
f 221/1/21 293/1/21 662/1/21 661/1/21
f 387/1/22 445/1/22 157/1/22 156/1/22
f 41/1/23 61/1/23 473/1/23 472/1/23
f 22/1/2 21/1/2 485/1/2 484/1/2
f 410/1/24 386/1/24 114/1/24 113/1/24
f 837/1/25 838/1/25 412/1/25 411/1/25
f 846/1/26 847/1/26 402/1/26 396/1/26
f 18/1/27 17/1/27 544/1/27 543/1/27
f 615/1/28 616/1/28 597/1/28 598/1/28
f 210/1/29 209/1/29 788/1/29 787/1/29
f 260/1/22 259/1/22 725/1/22 724/1/22
f 750/1/30 751/1/30 381/1/30 375/1/30
f 53/1/31 52/1/31 343/1/31 342/1/31
f 17/1/23 83/1/23 545/1/23 544/1/23
f 289/1/27 247/1/27 669/1/27 668/1/27
f 684/1/27 685/1/27 528/1/27 529/1/27
f 692/1/31 693/1/31 520/1/31 521/1/31
f 33/1/32 32/1/32 466/1/32 465/1/32
f 103/1/33 26/1/33 341/1/33 340/1/33
f 163/1/29 162/1/29 315/1/29 314/1/29
f 77/1/34 125/1/34 336/1/34 335/1/34
f 757/1/35 758/1/35 362/1/35 365/1/35
f 183/1/36 182/1/36 890/1/36 889/1/36
f 284/1/37 283/1/37 748/1/37 747/1/37
f 392/1/38 440/1/38 150/1/38 132/1/38
f 845/1/39 846/1/39 396/1/39 395/1/39
f 449/1/27 458/1/27 130/1/27 126/1/27
f 749/1/21 750/1/21 375/1/21 374/1/21
f 249/1/29 248/1/29 883/1/29 882/1/29
f 2/1/40 4/1/40 3/1/40 1/1/40
f 627/1/34 628/1/34 585/1/34 586/1/34
f 433/1/41 432/1/41 142/1/41 141/1/41
f 118/1/23 163/1/23 314/1/23 313/1/23
f 683/1/23 684/1/23 529/1/23 530/1/23
f 349/1/5 350/1/5 331/1/5
f 351/1/5 352/1/5 329/1/5
f 353/1/11 354/1/11 331/1/11
f 337/1/5 338/1/5 355/1/5
f 355/1/5 338/1/5 339/1/5
f 356/1/5 340/1/5 341/1/5 366/1/5
f 349/1/5 331/1/5 357/1/5
f 331/1/5 354/1/5 329/1/5
f 329/1/7 354/1/7 358/1/7
f 329/1/5 358/1/5 351/1/5
f 165/156/5 166/155/5 29/16/5 164/157/5
f 336/1/5 359/1/5 335/1/5
f 331/1/5 332/1/5 357/1/5
f 357/1/5 332/1/5 333/1/5
f 159/150/5 160/151/5 12/7/5 14/83/5
f 359/1/5 334/1/5 335/1/5
f 350/1/5 360/1/5 331/1/5
f 331/1/5 360/1/5 361/1/5
f 331/1/5 361/1/5 353/1/5
f 330/1/5 311/1/5 362/1/5
f 363/1/5 364/1/5 311/1/5
f 311/1/5 364/1/5 365/1/5
f 311/1/7 365/1/7 362/1/7
f 342/1/5 366/1/5 341/1/5
f 745/1/8 746/1/8 690/1/8 689/1/8
f 380/1/5 345/1/5 346/1/5 379/1/5
f 362/1/11 369/1/11 330/1/11
f 330/1/5 369/1/5 370/1/5
f 330/1/5 370/1/5 371/1/5
f 352/1/5 372/1/5 329/1/5
f 329/1/5 372/1/5 373/1/5
f 329/1/5 373/1/5 328/1/5
f 328/1/5 373/1/5 367/1/5
f 328/1/5 367/1/5 327/1/5
f 327/1/5 367/1/5 326/1/5
f 340/1/5 356/1/5 355/1/5 339/1/5
f 322/1/5 376/1/5 321/1/5
f 320/1/5 374/1/5 375/1/5 319/1/5
f 371/1/5 377/1/5 330/1/5
f 330/1/5 377/1/5 378/1/5
f 330/1/5 378/1/5 348/1/5
f 348/1/5 378/1/5 379/1/5
f 138/147/5 165/156/5 164/157/5 155/145/5
f 379/1/5 346/1/5 347/1/5
f 379/1/5 347/1/5 348/1/5
f 342/1/5 343/1/5 366/1/5
f 324/1/5 368/1/5 376/1/5 323/1/5
f 380/1/5 344/1/5 345/1/5
f 322/1/5 323/1/5 376/1/5
f 355/1/5 359/1/5 336/1/5 337/1/5
f 368/1/5 324/1/5 325/1/5
f 425/1/5 427/1/5 426/1/5 424/1/5
f 316/1/5 317/1/5 375/1/5
f 375/1/5 317/1/5 318/1/5
f 375/1/5 318/1/5 319/1/5
f 382/1/5 383/1/5 311/1/5
f 311/1/5 383/1/5 384/1/5
f 311/1/5 384/1/5 363/1/5
f 311/1/5 312/1/5 382/1/5
f 382/1/5 312/1/5 313/1/5
f 416/1/5 397/1/5 395/1/5 388/1/5
f 381/1/5 314/1/5 315/1/5
f 269/1/4 268/1/4 737/1/4 736/1/4
f 623/1/42 624/1/42 589/1/42 590/1/42
f 450/1/23 449/1/23 126/1/23 127/1/23
f 138/1/27 118/1/27 313/1/27 312/1/27
f 386/1/5 393/1/5 385/1/5
f 385/1/5 393/1/5 394/1/5
f 395/1/5 396/1/5 388/1/5
f 390/1/5 425/1/5 424/1/5 398/1/5
f 398/1/5 399/1/5 390/1/5
f 400/1/5 387/1/5 401/1/5
f 401/1/5 387/1/5 388/1/5
f 401/1/5 388/1/5 402/1/5
f 402/1/5 388/1/5 396/1/5
f 399/1/7 403/1/7 390/1/7
f 390/1/5 403/1/5 404/1/5
f 390/1/5 404/1/5 389/1/5
f 389/1/5 404/1/5 405/1/5
f 406/1/5 407/1/5 391/1/5
f 408/1/5 411/1/5 386/1/5
f 386/1/5 411/1/5 412/1/5
f 386/1/5 412/1/5 393/1/5
f 451/1/5 457/1/5 456/1/5 455/1/5
f 415/1/5 397/1/5 416/1/5
f 413/1/5 417/1/5 414/1/5
f 414/1/5 417/1/5 418/1/5
f 414/1/5 418/1/5 419/1/5
f 394/1/11 420/1/11 385/1/11
f 385/1/5 420/1/5 421/1/5
f 385/1/5 421/1/5 422/1/5
f 426/1/5 446/1/5 445/1/5 444/1/5
f 423/1/5 414/1/5 419/1/5
f 391/1/5 458/1/5 451/1/5 406/1/5
f 100/158/5 38/27/5 101/92/5 99/159/5
f 426/1/7 427/1/7 428/1/7
f 429/1/5 392/1/5 430/1/5
f 430/1/5 392/1/5 391/1/5
f 430/1/5 391/1/5 431/1/5
f 431/1/5 391/1/5 407/1/5
f 428/1/11 432/1/11 426/1/11
f 426/1/5 432/1/5 433/1/5
f 426/1/5 433/1/5 434/1/5
f 410/1/5 435/1/5 409/1/5
f 409/1/5 435/1/5 436/1/5
f 409/1/5 436/1/5 437/1/5
f 429/1/5 438/1/5 392/1/5
f 392/1/5 438/1/5 439/1/5
f 392/1/5 439/1/5 440/1/5
f 168/1/8 181/1/8 16/1/8 10/1/8
f 414/1/5 397/1/5 415/1/5 413/1/5
f 400/1/5 443/1/5 387/1/5
f 387/1/5 443/1/5 444/1/5
f 387/1/12 444/1/12 445/1/12
f 455/1/5 456/1/5 454/1/5 453/1/5
f 446/1/5 426/1/5 434/1/5
f 437/1/5 447/1/5 409/1/5
f 409/1/11 447/1/11 448/1/11
f 449/1/5 450/1/5 451/1/5
f 405/1/5 452/1/5 389/1/5
f 389/1/5 452/1/5 453/1/5
f 389/1/5 453/1/5 454/1/5
f 441/1/5 442/1/5 440/1/5 439/1/5
f 344/1/5 380/1/5 366/1/5 343/1/5
f 386/1/5 410/1/5 409/1/5 408/1/5
f 451/1/5 458/1/5 449/1/5
f 450/1/5 459/1/5 451/1/5
f 451/1/11 459/1/11 460/1/11
f 451/1/5 460/1/5 457/1/5
f 80/1/43 79/1/43 347/1/43 346/1/43
f 44/1/1 43/1/1 470/1/1 469/1/1
f 283/1/31 297/1/31 713/1/31 748/1/31
f 5/1/41 7/1/41 1/1/41 3/1/41
f 61/1/29 60/1/29 474/1/29 473/1/29
f 48/1/33 47/1/33 462/1/33 461/1/33
f 47/1/25 46/1/25 463/1/25 462/1/25
f 705/1/44 706/1/44 507/1/44 508/1/44
f 63/1/22 54/1/22 488/1/22 487/1/22
f 293/1/30 292/1/30 663/1/30 662/1/30
f 417/1/45 413/1/45 37/1/45 36/1/45
f 135/1/39 153/1/39 491/1/39 490/1/39
f 90/1/22 108/1/22 329/1/22 328/1/22
f 97/1/46 89/1/46 481/1/46 480/1/46
f 104/1/42 103/1/42 340/1/42 339/1/42
f 28/1/32 27/1/32 345/1/32 344/1/32
f 267/1/29 266/1/29 739/1/29 738/1/29
f 273/1/22 271/1/22 869/1/22 868/1/22
f 161/1/47 111/1/47 317/1/47 316/1/47
f 26/1/25 53/1/25 342/1/25 341/1/25
f 823/1/48 824/1/48 453/1/48 452/1/48
f 755/1/23 756/1/23 364/1/23 363/1/23
f 305/1/49 291/1/49 666/1/49 665/1/49
f 697/1/50 698/1/50 515/1/50 516/1/50
f 123/1/18 122/1/18 554/1/18 553/1/18
f 258/1/50 257/1/50 803/1/50 802/1/50
f 39/1/48 38/1/48 477/1/48 476/1/48
f 46/1/31 45/1/31 464/1/31 463/1/31
f 171/1/51 258/1/51 802/1/51 801/1/51
f 31/1/43 30/1/43 468/1/43 467/1/43
f 610/1/29 611/1/29 602/1/29 603/1/29
f 14/1/52 16/1/52 15/1/52 13/1/52
f 27/1/36 80/1/36 346/1/36 345/1/36
f 206/1/18 205/1/18 875/1/18 874/1/18
f 259/1/44 255/1/44 726/1/44 725/1/44
f 100/1/21 98/1/21 479/1/21 478/1/21
f 788/1/8 789/1/8 756/1/8 755/1/8
f 648/1/8 649/1/8 629/1/8 628/1/8
f 470/1/5 471/1/5 528/1/5 527/1/5
f 568/1/5 533/1/5 590/1/5 589/1/5
f 889/1/8 890/1/8 834/1/8 833/1/8
f 794/1/8 795/1/8 762/1/8 761/1/8
f 466/1/5 467/1/5 524/1/5 523/1/5
f 865/1/8 866/1/8 846/1/8 845/1/8
f 543/1/5 544/1/5 601/1/5 600/1/5
f 557/1/5 558/1/5 579/1/5 578/1/5
f 558/1/5 559/1/5 580/1/5 579/1/5
f 556/1/5 557/1/5 578/1/5 577/1/5
f 496/1/5 461/1/5 518/1/5 517/1/5
f 812/1/8 813/1/8 780/1/8 779/1/8
f 719/1/8 720/1/8 700/1/8 699/1/8
f 482/1/5 483/1/5 504/1/5 503/1/5
f 888/1/8 889/1/8 833/1/8 832/1/8
f 565/1/5 566/1/5 587/1/5 586/1/5
f 672/1/8 673/1/8 617/1/8 616/1/8
f 564/1/5 565/1/5 586/1/5 585/1/5
f 461/1/5 462/1/5 519/1/5 518/1/5
f 563/1/5 564/1/5 585/1/5 584/1/5
f 551/1/5 552/1/5 573/1/5 572/1/5
f 495/1/5 496/1/5 517/1/5 516/1/5
f 536/1/5 537/1/5 594/1/5 593/1/5
f 819/1/8 820/1/8 751/1/8 750/1/8
f 820/1/8 785/1/8 752/1/8 751/1/8
f 481/1/5 482/1/5 503/1/5 502/1/5
f 471/1/5 472/1/5 529/1/5 528/1/5
f 533/1/5 534/1/5 591/1/5 590/1/5
f 559/1/5 560/1/5 581/1/5 580/1/5
f 655/1/8 656/1/8 636/1/8 635/1/8
f 544/1/5 545/1/5 602/1/5 601/1/5
f 493/1/5 494/1/5 515/1/5 514/1/5
f 484/1/5 485/1/5 506/1/5 505/1/5
f 725/1/8 726/1/8 706/1/8 705/1/8
f 119/1/40 390/1/40 389/1/40 120/1/40
f 43/1/35 42/1/35 471/1/35 470/1/35
f 435/1/25 410/1/25 113/1/25 112/1/25
f 843/1/34 844/1/34 397/1/34 414/1/34
f 78/1/1 166/1/1 330/1/1 348/1/1
f 155/1/3 388/1/3 387/1/3 156/1/3
f 779/1/53 780/1/53 372/1/53 352/1/53
f 153/1/45 134/1/45 492/1/45 491/1/45
f 101/1/31 102/1/31 536/1/31 535/1/31
f 274/1/19 273/1/19 868/1/19 867/1/19
f 110/1/30 109/1/30 319/1/30 318/1/30
f 93/1/46 123/1/46 553/1/46 552/1/46
f 73/1/36 72/1/36 539/1/36 538/1/36
f 277/1/45 276/1/45 865/1/45 864/1/45
f 640/1/54 605/1/54 572/1/54 573/1/54
f 678/1/30 679/1/30 498/1/30 499/1/30
f 834/1/32 835/1/32 409/1/32 441/1/32
f 247/1/35 246/1/35 670/1/35 669/1/35
f 70/1/48 96/1/48 549/1/48 548/1/48
f 133/1/55 51/1/55 494/1/55 493/1/55
f 10/1/56 12/1/56 11/1/56 9/1/56
f 265/1/55 264/1/55 719/1/55 718/1/55
f 456/1/48 457/1/48 148/1/48 147/1/48
f 88/1/57 87/1/57 483/1/57 482/1/57
f 702/1/26 703/1/26 510/1/26 511/1/26
f 679/1/48 680/1/48 497/1/48 498/1/48
f 21/1/58 64/1/58 486/1/58 485/1/58
f 170/1/57 169/1/57 730/1/57 729/1/57
f 177/1/46 181/1/46 817/1/46 816/1/46
f 159/1/46 158/1/46 322/1/46 321/1/46
f 122/1/57 121/1/57 555/1/57 554/1/57
f 767/1/42 768/1/42 355/1/42 356/1/42
f 290/1/23 289/1/23 668/1/23 667/1/23
f 212/1/2 211/1/2 813/1/2 812/1/2
f 698/1/55 699/1/55 514/1/55 515/1/55
f 416/1/19 388/1/19 155/1/19 164/1/19
f 540/1/5 541/1/5 598/1/5 597/1/5
f 560/1/5 561/1/5 582/1/5 581/1/5
f 869/1/8 870/1/8 850/1/8 849/1/8
f 804/1/8 805/1/8 772/1/8 771/1/8
f 549/1/5 550/1/5 571/1/5 570/1/5
f 802/1/8 803/1/8 770/1/8 769/1/8
f 647/1/8 648/1/8 628/1/8 627/1/8
f 547/1/5 548/1/5 569/1/5 604/1/5
f 488/1/5 489/1/5 510/1/5 509/1/5
f 490/1/5 491/1/5 512/1/5 511/1/5
f 546/1/5 547/1/5 604/1/5 603/1/5
f 792/1/8 793/1/8 760/1/8 759/1/8
f 786/1/8 787/1/8 754/1/8 753/1/8
f 476/1/5 477/1/5 498/1/5 497/1/5
f 787/1/8 788/1/8 755/1/8 754/1/8
f 545/1/5 546/1/5 603/1/5 602/1/5
f 462/1/5 463/1/5 520/1/5 519/1/5
f 491/1/5 492/1/5 513/1/5 512/1/5
f 793/1/8 794/1/8 761/1/8 760/1/8
f 534/1/5 535/1/5 592/1/5 591/1/5
f 469/1/5 470/1/5 527/1/5 526/1/5
f 478/1/5 479/1/5 500/1/5 499/1/5
f 468/1/5 469/1/5 526/1/5 525/1/5
f 566/1/5 567/1/5 588/1/5 587/1/5
f 475/1/5 476/1/5 497/1/5 532/1/5
f 489/1/5 490/1/5 511/1/5 510/1/5
f 866/1/8 867/1/8 847/1/8 846/1/8
f 796/1/8 797/1/8 764/1/8 763/1/8
f 553/1/5 554/1/5 575/1/5 574/1/5
f 554/1/5 555/1/5 576/1/5 575/1/5
f 809/1/8 810/1/8 777/1/8 776/1/8
f 473/1/5 474/1/5 531/1/5 530/1/5
f 467/1/5 468/1/5 525/1/5 524/1/5
f 538/1/5 539/1/5 596/1/5 595/1/5
f 863/1/8 864/1/8 844/1/8 843/1/8
f 813/1/8 814/1/8 781/1/8 780/1/8
f 114/1/56 386/1/56 385/1/56 115/1/56
f 849/1/44 850/1/44 443/1/44 400/1/44
f 826/1/29 827/1/29 406/1/29 451/1/29
f 709/1/57 710/1/57 503/1/57 504/1/57
f 134/1/34 133/1/34 493/1/34 492/1/34
f 169/1/18 196/1/18 731/1/18 730/1/18
f 836/1/31 837/1/31 411/1/31 408/1/31
f 64/1/44 63/1/44 487/1/44 486/1/44
f 68/1/19 20/1/19 561/1/19 560/1/19
f 606/1/30 607/1/30 570/1/30 571/1/30
f 301/1/33 300/1/33 643/1/33 642/1/33
f 295/1/42 240/1/42 716/1/42 715/1/42
f 633/1/44 634/1/44 579/1/44 580/1/44
f 251/1/42 310/1/42 860/1/42 859/1/42
f 89/1/18 88/1/18 482/1/18 481/1/18
f 40/1/4 39/1/4 476/1/4 475/1/4
f 690/1/32 691/1/32 522/1/32 523/1/32
f 235/1/19 234/1/19 809/1/19 808/1/19
f 146/1/59 145/1/59 324/1/59 323/1/59
f 257/1/55 256/1/55 804/1/55 803/1/55
f 821/1/21 822/1/21 405/1/21 404/1/21
f 445/1/44 446/1/44 139/1/44 157/1/44
f 612/1/27 613/1/27 600/1/27 601/1/27
f 440/1/28 442/1/28 151/1/28 150/1/28
f 255/1/58 254/1/58 727/1/58 726/1/58
f 81/1/26 135/1/26 490/1/26 489/1/26
f 83/1/29 82/1/29 546/1/29 545/1/29
f 218/1/30 217/1/30 735/1/30 734/1/30
f 609/1/49 610/1/49 603/1/49 604/1/49
f 454/1/30 456/1/30 147/1/30 129/1/30
f 234/1/22 233/1/22 810/1/22 809/1/22
f 752/1/4 753/1/4 383/1/4 382/1/4
f 49/1/42 48/1/42 461/1/42 496/1/42
f 694/1/33 695/1/33 518/1/33 519/1/33
f 392/1/52 132/1/52 131/1/52 391/1/52
f 706/1/58 707/1/58 506/1/58 507/1/58
f 734/1/8 735/1/8 679/1/8 678/1/8
f 643/1/8 644/1/8 624/1/8 623/1/8
f 714/1/8 715/1/8 695/1/8 694/1/8
f 641/1/8 642/1/8 622/1/8 621/1/8
f 870/1/8 871/1/8 851/1/8 850/1/8
f 666/1/8 667/1/8 611/1/8 610/1/8
f 674/1/8 675/1/8 619/1/8 618/1/8
f 736/1/8 737/1/8 681/1/8 680/1/8
f 857/1/8 858/1/8 838/1/8 837/1/8
f 662/1/8 663/1/8 607/1/8 606/1/8
f 723/1/8 724/1/8 704/1/8 703/1/8
f 658/1/8 659/1/8 639/1/8 638/1/8
f 642/1/8 643/1/8 623/1/8 622/1/8
f 726/1/8 727/1/8 707/1/8 706/1/8
f 664/1/8 665/1/8 609/1/8 608/1/8
f 465/1/5 466/1/5 523/1/5 522/1/5
f 873/1/8 874/1/8 854/1/8 853/1/8
f 663/1/8 664/1/8 608/1/8 607/1/8
f 722/1/8 723/1/8 703/1/8 702/1/8
f 724/1/8 725/1/8 705/1/8 704/1/8
f 670/1/8 671/1/8 615/1/8 614/1/8
f 659/1/8 660/1/8 640/1/8 639/1/8
f 654/1/8 655/1/8 635/1/8 634/1/8
f 675/1/8 676/1/8 620/1/8 619/1/8
f 668/1/8 669/1/8 613/1/8 612/1/8
f 864/1/8 865/1/8 845/1/8 844/1/8
f 730/1/8 731/1/8 711/1/8 710/1/8
f 552/1/5 553/1/5 574/1/5 573/1/5
f 485/1/5 486/1/5 507/1/5 506/1/5
f 742/1/8 743/1/8 687/1/8 686/1/8
f 409/1/5 448/1/5 442/1/5 441/1/5
f 860/1/8 861/1/8 841/1/8 840/1/8
f 798/1/8 799/1/8 766/1/8 765/1/8
f 665/1/8 666/1/8 610/1/8 609/1/8
f 891/1/8 892/1/8 836/1/8 835/1/8
f 645/1/8 646/1/8 626/1/8 625/1/8
f 51/1/50 50/1/50 495/1/50 494/1/50
f 162/1/49 161/1/49 316/1/49 315/1/49
f 79/1/28 78/1/28 348/1/28 347/1/28
f 842/1/55 843/1/55 414/1/55 421/1/55
f 52/1/60 28/1/60 344/1/60 343/1/60
f 213/1/58 212/1/58 812/1/58 811/1/58
f 190/1/36 201/1/36 795/1/36 794/1/36
f 109/1/21 160/1/21 320/1/21 319/1/21
f 621/1/25 622/1/25 591/1/25 592/1/25
f 195/1/42 171/1/42 801/1/42 800/1/42
f 99/1/25 101/1/25 535/1/25 534/1/25
f 199/1/31 198/1/31 798/1/31 797/1/31
f 695/1/42 696/1/42 517/1/42 518/1/42
f 613/1/35 614/1/35 599/1/35 600/1/35
f 45/1/37 33/1/37 465/1/37 464/1/37
f 71/1/4 70/1/4 548/1/4 547/1/4
f 630/1/26 631/1/26 582/1/26 583/1/26
f 245/1/28 244/1/28 672/1/28 671/1/28
f 777/1/44 778/1/44 351/1/44 358/1/44
f 447/1/32 437/1/32 137/1/32 136/1/32
f 194/1/21 218/1/21 734/1/21 733/1/21
f 605/1/21 606/1/21 571/1/21 572/1/21
f 422/1/51 423/1/51 35/1/51 34/1/51
f 256/1/34 238/1/34 805/1/34 804/1/34
f 632/1/22 633/1/22 580/1/22 581/1/22
f 622/1/33 623/1/33 590/1/33 591/1/33
f 229/1/2 228/1/2 872/1/2 871/1/2
f 231/1/4 230/1/4 786/1/4 785/1/4
f 639/1/46 640/1/46 573/1/46 574/1/46
f 207/1/35 272/1/35 791/1/35 790/1/35
f 300/1/42 280/1/42 644/1/42 643/1/42
f 775/1/19 776/1/19 354/1/19 353/1/19
f 50/1/51 49/1/51 496/1/51 495/1/51
f 168/1/21 167/1/21 819/1/21 818/1/21
f 239/1/50 265/1/50 718/1/50 717/1/50
f 211/1/41 175/1/41 814/1/41 813/1/41
f 205/1/46 226/1/46 876/1/46 875/1/46
f 774/1/26 775/1/26 353/1/26 361/1/26
f 851/1/2 852/1/2 426/1/2 444/1/2
f 620/1/31 621/1/31 592/1/31 593/1/31
f 158/1/18 146/1/18 323/1/18 322/1/18
f 841/1/50 842/1/50 421/1/50 420/1/50
f 75/1/39 76/1/39 334/1/39 333/1/39
f 226/1/54 225/1/54 877/1/54 876/1/54
f 282/1/27 216/1/27 741/1/27 740/1/27
f 222/1/54 221/1/54 661/1/54 660/1/54
f 69/1/22 68/1/22 560/1/22 559/1/22
f 105/1/51 104/1/51 339/1/51 338/1/51
f 74/1/32 73/1/32 538/1/32 537/1/32
f 84/1/35 18/1/35 543/1/35 542/1/35
f 700/1/45 701/1/45 512/1/45 513/1/45
f 280/1/51 279/1/51 645/1/51 644/1/51
f 624/1/51 625/1/51 588/1/51 589/1/51
f 686/1/1 687/1/1 526/1/1 527/1/1
f 691/1/60 692/1/60 521/1/60 522/1/60
f 271/1/44 270/1/44 870/1/44 869/1/44
f 38/1/30 100/1/30 478/1/30 477/1/30
f 95/1/21 94/1/21 551/1/21 550/1/21
f 87/1/41 22/1/41 484/1/41 483/1/41
f 59/1/44 69/1/44 559/1/44 558/1/44
f 266/1/23 282/1/23 740/1/23 739/1/23
f 214/1/26 219/1/26 651/1/26 650/1/26
f 60/1/49 40/1/49 475/1/49 474/1/49
f 762/1/32 763/1/32 378/1/32 377/1/32
f 299/1/36 298/1/36 746/1/36 745/1/36
f 20/1/26 19/1/26 562/1/26 561/1/26
f 682/1/29 683/1/29 530/1/29 531/1/29
f 288/1/37 287/1/37 676/1/37 675/1/37
f 628/1/45 629/1/45 584/1/45 585/1/45
f 62/1/42 23/1/42 533/1/42 568/1/42
f 92/1/58 91/1/58 327/1/58 326/1/58
f 432/1/57 428/1/57 143/1/57 142/1/57
f 671/1/8 672/1/8 616/1/8 615/1/8
f 651/1/8 652/1/8 632/1/8 631/1/8
f 98/91/5 100/158/5 99/159/5 23/10/5
f 740/1/8 741/1/8 685/1/8 684/1/8
f 667/1/8 668/1/8 612/1/8 611/1/8
f 657/1/8 658/1/8 638/1/8 637/1/8
f 728/1/8 729/1/8 709/1/8 708/1/8
f 738/1/8 739/1/8 683/1/8 682/1/8
f 811/1/8 812/1/8 779/1/8 778/1/8
f 806/1/8 807/1/8 774/1/8 773/1/8
f 715/1/8 716/1/8 696/1/8 695/1/8
f 661/1/8 662/1/8 606/1/8 605/1/8
f 650/1/8 651/1/8 631/1/8 630/1/8
f 721/1/8 722/1/8 702/1/8 701/1/8
f 720/1/8 721/1/8 701/1/8 700/1/8
f 649/1/8 650/1/8 630/1/8 629/1/8
f 882/1/8 883/1/8 827/1/8 826/1/8
f 739/1/8 740/1/8 684/1/8 683/1/8
f 743/1/8 744/1/8 688/1/8 687/1/8
f 733/1/8 734/1/8 678/1/8 677/1/8
f 741/1/8 742/1/8 686/1/8 685/1/8
f 731/1/8 732/1/8 712/1/8 711/1/8
f 748/1/8 713/1/8 693/1/8 692/1/8
f 646/1/8 647/1/8 627/1/8 626/1/8
f 746/1/8 747/1/8 691/1/8 690/1/8
f 653/1/8 654/1/8 634/1/8 633/1/8
f 735/1/8 736/1/8 680/1/8 679/1/8
f 713/1/8 714/1/8 694/1/8 693/1/8
f 537/1/5 538/1/5 595/1/5 594/1/5
f 732/1/8 733/1/8 677/1/8 712/1/8
f 716/1/8 717/1/8 697/1/8 696/1/8
f 561/1/5 562/1/5 583/1/5 582/1/5
f 727/1/8 728/1/8 708/1/8 707/1/8
f 669/1/8 670/1/8 614/1/8 613/1/8
f 880/1/8 881/1/8 825/1/8 824/1/8
f 744/1/8 745/1/8 689/1/8 688/1/8
f 263/1/45 262/1/45 721/1/45 720/1/45
f 233/1/44 213/1/44 811/1/44 810/1/44
f 219/1/19 220/1/19 652/1/19 651/1/19
f 760/1/43 761/1/43 371/1/43 370/1/43
f 839/1/42 840/1/42 394/1/42 393/1/42
f 30/1/28 44/1/28 469/1/28 468/1/28
f 616/1/43 617/1/43 596/1/43 597/1/43
f 223/1/46 222/1/46 660/1/46 659/1/46
f 856/1/54 821/1/54 404/1/54 403/1/54
f 681/1/49 682/1/49 531/1/49 532/1/49
f 242/1/34 241/1/34 648/1/34 647/1/34
f 243/1/55 242/1/55 647/1/55 646/1/55
f 270/1/58 229/1/58 871/1/58 870/1/58
f 685/1/35 686/1/35 527/1/35 528/1/35
f 145/1/41 144/1/41 325/1/41 324/1/41
f 689/1/36 690/1/36 523/1/36 524/1/36
f 677/1/21 678/1/21 499/1/21 500/1/21
f 276/1/39 275/1/39 866/1/39 865/1/39
f 608/1/47 609/1/47 604/1/47 569/1/47
f 308/1/55 278/1/55 863/1/55 862/1/55
f 701/1/39 702/1/39 511/1/39 512/1/39
f 253/1/41 170/1/41 729/1/41 728/1/41
f 296/1/33 295/1/33 715/1/33 714/1/33
f 693/1/25 694/1/25 519/1/25 520/1/25
f 773/1/39 774/1/39 361/1/39 360/1/39
f 262/1/39 294/1/39 722/1/39 721/1/39
f 67/1/45 66/1/45 564/1/45 563/1/45
f 635/1/2 636/1/2 577/1/2 578/1/2
f 297/1/25 296/1/25 714/1/25 713/1/25
f 215/1/39 214/1/39 650/1/39 649/1/39
f 286/1/28 285/1/28 744/1/28 743/1/28
f 707/1/2 708/1/2 505/1/2 506/1/2
f 55/1/51 62/1/51 568/1/51 567/1/51
f 58/1/58 59/1/58 558/1/58 557/1/58
f 764/1/31 765/1/31 380/1/31 379/1/31
f 185/1/43 183/1/43 889/1/43 888/1/43
f 287/1/31 302/1/31 641/1/31 676/1/31
f 261/1/19 260/1/19 724/1/19 723/1/19
f 179/1/48 178/1/48 880/1/48 879/1/48
f 23/1/33 99/1/33 534/1/33 533/1/33
f 186/1/28 185/1/28 888/1/28 887/1/28
f 374/1/5 320/1/5 321/1/5 376/1/5
f 822/1/30 823/1/30 452/1/30 405/1/30
f 285/1/43 299/1/43 745/1/43 744/1/43
f 833/1/36 834/1/36 441/1/36 439/1/36
f 174/1/31 307/1/31 857/1/31 892/1/31
f 459/1/61 450/1/61 127/1/61 128/1/61
f 209/1/23 208/1/23 789/1/23 788/1/23
f 754/1/29 755/1/29 363/1/29 384/1/29
f 759/1/28 760/1/28 370/1/28 369/1/28
f 611/1/23 612/1/23 601/1/23 602/1/23
f 56/1/50 55/1/50 567/1/50 566/1/50
f 310/1/51 309/1/51 861/1/51 860/1/51
f 838/1/33 839/1/33 393/1/33 412/1/33
f 614/1/1 615/1/1 598/1/1 599/1/1
f 191/1/43 190/1/43 794/1/43 793/1/43
f 291/1/29 290/1/29 667/1/29 666/1/29
f 769/1/50 770/1/50 357/1/50 359/1/50
f 855/1/46 856/1/46 403/1/46 399/1/46
f 460/1/49 459/1/49 128/1/49 149/1/49
f 784/1/54 749/1/54 374/1/54 376/1/54
f 86/1/28 85/1/28 541/1/28 540/1/28
f 244/1/43 304/1/43 673/1/43 672/1/43
f 751/1/48 752/1/48 382/1/48 381/1/48
f 768/1/51 769/1/51 359/1/51 355/1/51
f 772/1/62 773/1/62 360/1/62 350/1/62
f 236/1/26 235/1/26 808/1/26 807/1/26
f 237/1/39 236/1/39 807/1/39 806/1/39
f 180/1/2 204/1/2 656/1/2 655/1/2
f 753/1/49 754/1/49 384/1/49 383/1/49
f 192/1/54 194/1/54 733/1/54 732/1/54
f 187/1/1 186/1/1 887/1/1 886/1/1
f 814/1/8 815/1/8 782/1/8 781/1/8
f 879/1/8 880/1/8 824/1/8 823/1/8
f 717/1/8 718/1/8 698/1/8 697/1/8
f 472/1/5 473/1/5 530/1/5 529/1/5
f 542/1/5 543/1/5 600/1/5 599/1/5
f 858/1/8 859/1/8 839/1/8 838/1/8
f 875/1/8 876/1/8 856/1/8 855/1/8
f 789/1/8 790/1/8 757/1/8 756/1/8
f 492/1/5 493/1/5 514/1/5 513/1/5
f 535/1/5 536/1/5 593/1/5 592/1/5
f 800/1/8 801/1/8 768/1/8 767/1/8
f 803/1/8 804/1/8 771/1/8 770/1/8
f 567/1/5 568/1/5 589/1/5 588/1/5
f 816/1/8 817/1/8 784/1/8 783/1/8
f 878/1/8 879/1/8 823/1/8 822/1/8
f 656/1/8 657/1/8 637/1/8 636/1/8
f 885/1/8 886/1/8 830/1/8 829/1/8
f 818/1/8 819/1/8 750/1/8 749/1/8
f 785/1/8 786/1/8 753/1/8 752/1/8
f 550/1/5 551/1/5 572/1/5 571/1/5
f 486/1/5 487/1/5 508/1/5 507/1/5
f 548/1/5 549/1/5 570/1/5 569/1/5
f 868/1/8 869/1/8 849/1/8 848/1/8
f 887/1/8 888/1/8 832/1/8 831/1/8
f 807/1/8 808/1/8 775/1/8 774/1/8
f 790/1/8 791/1/8 758/1/8 757/1/8
f 737/1/8 738/1/8 682/1/8 681/1/8
f 805/1/8 806/1/8 773/1/8 772/1/8
f 562/1/5 563/1/5 584/1/5 583/1/5
f 463/1/5 464/1/5 521/1/5 520/1/5
f 464/1/5 465/1/5 522/1/5 521/1/5
f 810/1/8 811/1/8 778/1/8 777/1/8
f 801/1/8 802/1/8 769/1/8 768/1/8
f 799/1/8 800/1/8 767/1/8 766/1/8
f 474/1/5 475/1/5 532/1/5 531/1/5
f 797/1/8 798/1/8 765/1/8 764/1/8
f 264/1/34 263/1/34 720/1/34 719/1/34
f 172/1/58 180/1/58 655/1/58 654/1/58
f 708/1/41 709/1/41 504/1/41 505/1/41
f 425/1/54 390/1/54 119/1/54 117/1/54
f 254/1/2 253/1/2 728/1/2 727/1/2
f 847/1/19 848/1/19 401/1/19 402/1/19
f 711/1/46 712/1/46 501/1/46 502/1/46
f 418/1/34 417/1/34 36/1/34 25/1/34
f 220/1/22 173/1/22 653/1/22 652/1/22
f 208/1/27 207/1/27 790/1/27 789/1/27
f 703/1/19 704/1/19 509/1/19 510/1/19
f 167/1/30 232/1/30 820/1/30 819/1/30
f 626/1/55 627/1/55 586/1/55 587/1/55
f 303/1/32 288/1/32 675/1/32 674/1/32
f 224/1/30 179/1/30 879/1/30 878/1/30
f 781/1/57 782/1/57 367/1/57 373/1/57
f 227/1/57 206/1/57 874/1/57 873/1/57
f 830/1/1 831/1/1 429/1/1 430/1/1
f 638/1/18 639/1/18 574/1/18 575/1/18
f 246/1/1 245/1/1 671/1/1 670/1/1
f 57/1/2 58/1/2 557/1/2 556/1/2
f 298/1/32 284/1/32 747/1/32 746/1/32
f 200/1/37 199/1/37 797/1/37 796/1/37
f 198/1/25 197/1/25 799/1/25 798/1/25
f 197/1/33 195/1/33 800/1/33 799/1/33
f 442/1/43 448/1/43 152/1/43 151/1/43
f 66/1/34 65/1/34 565/1/34 564/1/34
f 160/1/54 159/1/54 321/1/54 320/1/54
f 279/1/50 243/1/50 646/1/50 645/1/50
f 780/1/41 781/1/41 373/1/41 372/1/41
f 766/1/33 767/1/33 356/1/33 366/1/33
f 278/1/34 277/1/34 864/1/34 863/1/34
f 840/1/51 841/1/51 420/1/51 394/1/51
f 419/1/63 418/1/63 25/1/63 24/1/63
f 201/1/32 200/1/32 796/1/32 795/1/32
f 770/1/55 771/1/55 349/1/55 357/1/55
f 617/1/36 618/1/36 595/1/36 596/1/36
f 196/1/46 192/1/46 732/1/46 731/1/46
f 625/1/50 626/1/50 587/1/50 588/1/50
f 712/1/54 677/1/54 500/1/54 501/1/54
f 302/1/25 301/1/25 642/1/25 641/1/25
f 458/1/64 391/1/64 131/1/64 130/1/64
f 824/1/4 825/1/4 455/1/4 453/1/4
f 704/1/22 705/1/22 508/1/22 509/1/22
f 607/1/48 608/1/48 569/1/48 570/1/48
f 619/1/60 620/1/60 593/1/60 594/1/60
f 634/1/58 635/1/58 578/1/58 579/1/58
f 828/1/27 829/1/27 431/1/27 407/1/27
f 415/1/26 416/1/26 164/1/26 29/1/26
f 72/1/43 86/1/43 540/1/43 539/1/43
f 389/1/21 454/1/21 129/1/21 120/1/21
f 94/1/54 93/1/54 552/1/54 551/1/54
f 32/1/36 31/1/36 467/1/36 466/1/36
f 96/1/30 95/1/30 550/1/30 549/1/30
f 204/1/41 203/1/41 657/1/41 656/1/41
f 268/1/49 267/1/49 738/1/49 737/1/49
f 181/1/54 168/1/54 818/1/54 817/1/54
f 761/1/36 762/1/36 377/1/36 371/1/36
f 756/1/27 757/1/27 365/1/27 364/1/27
f 776/1/22 777/1/22 358/1/22 354/1/22
f 292/1/48 306/1/48 664/1/48 663/1/48
f 111/1/48 110/1/48 318/1/48 317/1/48
f 144/1/2 92/1/2 326/1/2 325/1/2
f 125/1/63 124/1/63 337/1/63 336/1/63
f 825/1/49 826/1/49 451/1/49 455/1/49
f 304/1/36 303/1/36 674/1/36 673/1/36
f 106/1/26 75/1/26 333/1/26 332/1/26
f 848/1/22 849/1/22 400/1/22 401/1/22
f 306/1/4 305/1/4 665/1/4 664/1/4
f 225/1/21 224/1/21 878/1/21 877/1/21
f 765/1/25 766/1/25 366/1/25 380/1/25
f 16/1/32 14/1/32 12/1/32 10/1/32
f 644/1/8 645/1/8 625/1/8 624/1/8
f 886/1/8 887/1/8 831/1/8 830/1/8
f 791/1/8 792/1/8 759/1/8 758/1/8
f 555/1/5 556/1/5 577/1/5 576/1/5
f 883/1/8 884/1/8 828/1/8 827/1/8
f 729/1/8 730/1/8 710/1/8 709/1/8
f 881/1/8 882/1/8 826/1/8 825/1/8
f 718/1/8 719/1/8 699/1/8 698/1/8
f 874/1/8 875/1/8 855/1/8 854/1/8
f 876/1/8 877/1/8 821/1/8 856/1/8
f 859/1/8 860/1/8 840/1/8 839/1/8
f 817/1/8 818/1/8 749/1/8 784/1/8
f 808/1/8 809/1/8 776/1/8 775/1/8
f 273/1/8 274/1/8 193/1/8 272/1/8
f 477/1/5 478/1/5 499/1/5 498/1/5
f 890/1/8 891/1/8 835/1/8 834/1/8
f 862/1/8 863/1/8 843/1/8 842/1/8
f 861/1/8 862/1/8 842/1/8 841/1/8
f 479/1/5 480/1/5 501/1/5 500/1/5
f 884/1/8 885/1/8 829/1/8 828/1/8
f 271/1/8 273/1/8 272/1/8 207/1/8
f 652/1/8 653/1/8 633/1/8 632/1/8
f 892/1/8 857/1/8 837/1/8 836/1/8
f 480/1/5 481/1/5 502/1/5 501/1/5
f 872/1/8 873/1/8 853/1/8 852/1/8
f 673/1/8 674/1/8 618/1/8 617/1/8
f 676/1/8 641/1/8 621/1/8 620/1/8
f 539/1/5 540/1/5 597/1/5 596/1/5
f 487/1/5 488/1/5 509/1/5 508/1/5
f 867/1/8 868/1/8 848/1/8 847/1/8
f 877/1/8 878/1/8 822/1/8 821/1/8
f 483/1/5 484/1/5 505/1/5 504/1/5
f 871/1/8 872/1/8 852/1/8 851/1/8
f 541/1/5 542/1/5 599/1/5 598/1/5
f 747/1/8 748/1/8 692/1/8 691/1/8
f 795/1/8 796/1/8 763/1/8 762/1/8
f 696/1/51 697/1/51 516/1/51 517/1/51
f 835/1/37 836/1/37 408/1/37 409/1/37
f 771/1/34 772/1/34 350/1/34 349/1/34
f 252/1/33 251/1/33 859/1/33 858/1/33
f 188/1/35 187/1/35 886/1/35 885/1/35
f 699/1/34 700/1/34 513/1/34 514/1/34
f 176/1/18 177/1/18 816/1/18 815/1/18
f 203/1/57 184/1/57 658/1/57 657/1/57
f 216/1/35 281/1/35 742/1/35 741/1/35
f 844/1/45 845/1/45 395/1/45 397/1/45
f 778/1/58 779/1/58 352/1/58 351/1/58
f 4/1/49 2/1/49 13/1/49 15/1/49
f 680/1/47 681/1/47 532/1/47 497/1/47
f 831/1/28 832/1/28 438/1/28 429/1/28
f 228/1/41 227/1/41 873/1/41 872/1/41
f 829/1/35 830/1/35 430/1/35 431/1/35
f 294/1/26 261/1/26 723/1/26 722/1/26
f 783/1/46 784/1/46 376/1/46 368/1/46
f 758/1/1 759/1/1 369/1/1 362/1/1
f 238/1/45 237/1/45 806/1/45 805/1/45
f 217/1/48 269/1/48 736/1/48 735/1/48
f 178/1/4 250/1/4 881/1/4 880/1/4
f 230/1/49 210/1/49 787/1/49 786/1/49
f 6/1/3 8/1/3 7/1/3 5/1/3
f 250/1/49 249/1/49 882/1/49 881/1/49
f 618/1/32 619/1/32 594/1/32 595/1/32
f 637/1/57 638/1/57 575/1/57 576/1/57
f 629/1/39 630/1/39 583/1/39 584/1/39
f 688/1/43 689/1/43 524/1/43 525/1/43
f 710/1/18 711/1/18 502/1/18 503/1/18
f 82/1/49 71/1/49 547/1/49 546/1/49
f 782/1/18 783/1/18 368/1/18 367/1/18
f 65/1/55 56/1/55 566/1/55 565/1/55
f 102/1/37 74/1/37 537/1/37 536/1/37
f 309/1/50 308/1/50 862/1/50 861/1/50
f 184/1/18 223/1/18 659/1/18 658/1/18
f 121/1/41 57/1/41 556/1/41 555/1/41
f 202/1/37 174/1/37 892/1/37 891/1/37
f 272/1/1 193/1/1 792/1/1 791/1/1
f 240/1/51 239/1/51 717/1/51 716/1/51
f 852/1/41 853/1/41 424/1/41 426/1/41
f 853/1/57 854/1/57 398/1/57 424/1/57
f 850/1/58 851/1/58 444/1/58 443/1/58
f 189/1/27 188/1/27 885/1/27 884/1/27
f 9/1/34 11/1/34 8/1/34 6/1/34
f 854/1/18 855/1/18 399/1/18 398/1/18
f 124/1/50 105/1/50 338/1/50 337/1/50
f 165/1/35 138/1/35 312/1/35 311/1/35
f 182/1/32 202/1/32 891/1/32 890/1/32
f 413/1/39 415/1/39 29/1/39 37/1/39
f 275/1/26 274/1/26 867/1/26 866/1/26
f 248/1/23 189/1/23 884/1/23 883/1/23
f 98/1/54 97/1/54 480/1/54 479/1/54
f 76/1/45 77/1/45 335/1/45 334/1/45
f 832/1/43 833/1/43 439/1/43 438/1/43
f 446/1/58 434/1/58 140/1/58 139/1/58
f 42/1/27 41/1/27 472/1/27 471/1/27
f 827/1/23 828/1/23 407/1/23 406/1/23
f 330/1/52 166/1/52 165/1/52 311/1/52
f 307/1/25 252/1/25 858/1/25 857/1/25
f 232/1/48 231/1/48 785/1/48 820/1/48
f 241/1/45 215/1/45 649/1/45 648/1/45
f 91/1/44 90/1/44 328/1/44 327/1/44
f 54/1/19 81/1/19 489/1/19 488/1/19
f 427/1/46 425/1/46 117/1/46 116/1/46
f 193/1/28 191/1/28 793/1/28 792/1/28
f 763/1/37 764/1/37 379/1/37 378/1/37
f 19/1/39 67/1/39 563/1/39 562/1/39
f 175/1/57 176/1/57 815/1/57 814/1/57
f 423/1/50 419/1/50 24/1/50 35/1/50
f 636/1/41 637/1/41 576/1/41 577/1/41
f 107/1/19 106/1/19 332/1/19 331/1/19
f 687/1/28 688/1/28 525/1/28 526/1/28
f 448/1/65 447/1/65 136/1/65 152/1/65
f 173/1/44 172/1/44 654/1/44 653/1/44
f 437/1/60 436/1/60 154/1/60 137/1/60
f 436/1/31 435/1/31 112/1/31 154/1/31
